%TF.GenerationSoftware,KiCad,Pcbnew,6.0.6-3a73a75311~116~ubuntu20.04.1*%
%TF.CreationDate,2022-06-30T05:51:01+02:00*%
%TF.ProjectId,panel_v3,70616e65-6c5f-4763-932e-6b696361645f,rev?*%
%TF.SameCoordinates,Original*%
%TF.FileFunction,Profile,NP*%
%FSLAX46Y46*%
G04 Gerber Fmt 4.6, Leading zero omitted, Abs format (unit mm)*
G04 Created by KiCad (PCBNEW 6.0.6-3a73a75311~116~ubuntu20.04.1) date 2022-06-30 05:51:01*
%MOMM*%
%LPD*%
G01*
G04 APERTURE LIST*
%TA.AperFunction,Profile*%
%ADD10C,0.150000*%
%TD*%
G04 APERTURE END LIST*
D10*
X96017372Y-164100119D02*
X93798823Y-164100119D01*
X93798823Y-164100119D02*
X93798823Y-137765039D01*
X93798823Y-137765039D02*
X96017372Y-137765039D01*
X96017372Y-137765039D02*
X96017372Y-164100119D01*
X128890082Y-61882375D02*
X131132937Y-61882375D01*
X131132937Y-61882375D02*
X131132937Y-64124934D01*
X131132937Y-64124934D02*
X128890082Y-64124934D01*
X128890082Y-64124934D02*
X128890082Y-61882375D01*
X96012160Y-89102598D02*
X93793611Y-89102598D01*
X93793611Y-89102598D02*
X93793611Y-63964125D01*
X93793611Y-63964125D02*
X96012160Y-63964125D01*
X96012160Y-63964125D02*
X96012160Y-89102598D01*
X60163324Y-96983576D02*
X84827870Y-96983576D01*
X84827870Y-96983576D02*
X84827870Y-99995977D01*
X84827870Y-99995977D02*
X60163324Y-99995977D01*
X60163324Y-99995977D02*
X60163324Y-96983576D01*
X93803302Y-33459970D02*
X95991070Y-33459970D01*
X95991070Y-33459970D02*
X95991070Y-59076941D01*
X95991070Y-59076941D02*
X93803302Y-59076941D01*
X93803302Y-59076941D02*
X93803302Y-33459970D01*
X58684414Y-132867150D02*
X60928845Y-132867150D01*
X60928845Y-132867150D02*
X60928845Y-135132564D01*
X60928845Y-135132564D02*
X58684414Y-135132564D01*
X58684414Y-135132564D02*
X58684414Y-132867150D01*
X25811627Y-28994910D02*
X163982911Y-28994910D01*
X163982911Y-28994910D02*
X163982911Y-167983019D01*
X163982911Y-167983019D02*
X25811627Y-167983019D01*
X25811627Y-167983019D02*
X25811627Y-28994910D01*
X131535346Y-135555872D02*
X128443707Y-135555872D01*
X128443707Y-135555872D02*
X128443707Y-132465544D01*
X128443707Y-132465544D02*
X131535346Y-132465544D01*
X131535346Y-132465544D02*
X131535346Y-135555872D01*
X29789413Y-96976268D02*
X56064407Y-96976268D01*
X56064407Y-96976268D02*
X56064407Y-99993084D01*
X56064407Y-99993084D02*
X29789413Y-99993084D01*
X29789413Y-99993084D02*
X29789413Y-96976268D01*
X58686241Y-61868231D02*
X60924476Y-61868231D01*
X60924476Y-61868231D02*
X60924476Y-64106710D01*
X60924476Y-64106710D02*
X58686241Y-64106710D01*
X58686241Y-64106710D02*
X58686241Y-61868231D01*
X105323299Y-96992773D02*
X129730759Y-96992773D01*
X129730759Y-96992773D02*
X129730759Y-100009589D01*
X129730759Y-100009589D02*
X105323299Y-100009589D01*
X105323299Y-100009589D02*
X105323299Y-96992773D01*
X133829676Y-97000081D02*
X159906651Y-97000081D01*
X159906651Y-97000081D02*
X159906651Y-100012482D01*
X159906651Y-100012482D02*
X133829676Y-100012482D01*
X133829676Y-100012482D02*
X133829676Y-97000081D01*
X93808514Y-107260884D02*
X95996282Y-107260884D01*
X95996282Y-107260884D02*
X95996282Y-132877855D01*
X95996282Y-132877855D02*
X93808514Y-132877855D01*
X93808514Y-132877855D02*
X93808514Y-107260884D01*
X95997795Y-96995735D02*
X99929223Y-96999294D01*
X99919018Y-99995984D01*
X95997767Y-99996629D01*
X95995502Y-103839447D01*
X93800004Y-103843009D01*
X93798790Y-99995520D01*
X89704224Y-99996048D01*
X89707065Y-96982553D01*
X93798212Y-96982504D01*
X93801564Y-93023164D01*
X95994632Y-93015722D01*
X95997795Y-96995735D01*
M02*
