M48
; DRILL file {KiCad 6.0.6-3a73a75311~116~ubuntu20.04.1} date Thu 30 Jun 2022 05:50:57 AM CEST
; FORMAT={-:-/ absolute / metric / decimal}
; #@! TF.CreationDate,2022-06-30T05:50:57+02:00
; #@! TF.GenerationSoftware,Kicad,Pcbnew,6.0.6-3a73a75311~116~ubuntu20.04.1
; #@! TF.FileFunction,Plated,1,2,PTH
FMAT,2
METRIC
; #@! TA.AperFunction,Plated,PTH,ViaDrill
T1C0.400
; #@! TA.AperFunction,Plated,PTH,ComponentDrill
T2C0.460
%
G90
G05
T1
X48.214Y-122.412
X48.22Y-145.581
X48.259Y-144.036
X48.265Y-123.945
X49.752Y-145.53
X49.759Y-122.452
X69.844Y-145.535
X69.85Y-122.457
X71.338Y-144.043
X71.343Y-123.951
X71.383Y-122.406
X71.389Y-145.575
X118.406Y-122.433
X118.412Y-145.602
X118.427Y-51.418
X118.433Y-74.587
X118.452Y-144.057
X118.457Y-123.965
X118.473Y-73.043
X118.478Y-52.951
X119.944Y-145.551
X119.951Y-122.473
X119.965Y-74.536
X119.972Y-51.458
X140.036Y-145.556
X140.043Y-122.478
X140.057Y-74.542
X140.064Y-51.464
X141.53Y-144.064
X141.535Y-123.972
X141.551Y-73.049
X141.556Y-52.957
X141.575Y-122.427
X141.581Y-145.596
X141.596Y-51.413
X141.602Y-74.581
T2
X31.72Y-58.61
X31.72Y-67.37
X31.734Y-129.613
X31.734Y-138.373
X55.423Y-34.921
X55.426Y-162.073
X64.183Y-34.921
X64.186Y-162.073
X125.61Y-162.082
X125.632Y-34.921
X134.37Y-162.082
X134.392Y-34.921
X158.082Y-129.629
X158.082Y-138.389
X158.091Y-58.618
X158.091Y-67.378
T0
M30
