%TF.GenerationSoftware,KiCad,Pcbnew,6.0.6-3a73a75311~116~ubuntu20.04.1*%
%TF.CreationDate,2022-06-30T05:51:01+02:00*%
%TF.ProjectId,panel_v3,70616e65-6c5f-4763-932e-6b696361645f,rev?*%
%TF.SameCoordinates,Original*%
%TF.FileFunction,Copper,L1,Top*%
%TF.FilePolarity,Positive*%
%FSLAX46Y46*%
G04 Gerber Fmt 4.6, Leading zero omitted, Abs format (unit mm)*
G04 Created by KiCad (PCBNEW 6.0.6-3a73a75311~116~ubuntu20.04.1) date 2022-06-30 05:51:01*
%MOMM*%
%LPD*%
G01*
G04 APERTURE LIST*
G04 Aperture macros list*
%AMRoundRect*
0 Rectangle with rounded corners*
0 $1 Rounding radius*
0 $2 $3 $4 $5 $6 $7 $8 $9 X,Y pos of 4 corners*
0 Add a 4 corners polygon primitive as box body*
4,1,4,$2,$3,$4,$5,$6,$7,$8,$9,$2,$3,0*
0 Add four circle primitives for the rounded corners*
1,1,$1+$1,$2,$3*
1,1,$1+$1,$4,$5*
1,1,$1+$1,$6,$7*
1,1,$1+$1,$8,$9*
0 Add four rect primitives between the rounded corners*
20,1,$1+$1,$2,$3,$4,$5,0*
20,1,$1+$1,$4,$5,$6,$7,0*
20,1,$1+$1,$6,$7,$8,$9,0*
20,1,$1+$1,$8,$9,$2,$3,0*%
%AMOutline4P*
0 Free polygon, 4 corners , with rotation*
0 The origin of the aperture is its center*
0 number of corners: always 4*
0 $1 to $8 corner X, Y*
0 $9 Rotation angle, in degrees counterclockwise*
0 create outline with 4 corners*
4,1,4,$1,$2,$3,$4,$5,$6,$7,$8,$1,$2,$9*%
G04 Aperture macros list end*
%TA.AperFunction,EtchedComponent*%
%ADD10C,0.010000*%
%TD*%
%TA.AperFunction,SMDPad,CuDef*%
%ADD11Outline4P,-2.000000X-0.550000X2.000000X-1.550000X2.000000X1.550000X-2.000000X0.550000X90.000000*%
%TD*%
%TA.AperFunction,SMDPad,CuDef*%
%ADD12R,0.460000X0.950000*%
%TD*%
%TA.AperFunction,SMDPad,CuDef*%
%ADD13R,2.420000X5.080000*%
%TD*%
%TA.AperFunction,ComponentPad*%
%ADD14C,0.970000*%
%TD*%
%TA.AperFunction,SMDPad,CuDef*%
%ADD15Outline4P,-2.000000X-0.550000X2.000000X-1.550000X2.000000X1.550000X-2.000000X0.550000X270.000000*%
%TD*%
%TA.AperFunction,SMDPad,CuDef*%
%ADD16RoundRect,0.237500X0.380070X-0.044194X-0.044194X0.380070X-0.380070X0.044194X0.044194X-0.380070X0*%
%TD*%
%TA.AperFunction,SMDPad,CuDef*%
%ADD17Outline4P,-2.000000X-0.550000X2.000000X-1.550000X2.000000X1.550000X-2.000000X0.550000X0.000000*%
%TD*%
%TA.AperFunction,SMDPad,CuDef*%
%ADD18R,0.950000X0.460000*%
%TD*%
%TA.AperFunction,SMDPad,CuDef*%
%ADD19R,5.080000X2.420000*%
%TD*%
%TA.AperFunction,SMDPad,CuDef*%
%ADD20RoundRect,0.237500X-0.044194X-0.380070X0.380070X0.044194X0.044194X0.380070X-0.380070X-0.044194X0*%
%TD*%
%TA.AperFunction,SMDPad,CuDef*%
%ADD21RoundRect,0.237500X0.044194X0.380070X-0.380070X-0.044194X-0.044194X-0.380070X0.380070X0.044194X0*%
%TD*%
%TA.AperFunction,SMDPad,CuDef*%
%ADD22RoundRect,0.237500X-0.380070X0.044194X0.044194X-0.380070X0.380070X-0.044194X-0.044194X0.380070X0*%
%TD*%
%TA.AperFunction,SMDPad,CuDef*%
%ADD23Outline4P,-2.000000X-0.550000X2.000000X-1.550000X2.000000X1.550000X-2.000000X0.550000X180.000000*%
%TD*%
%TA.AperFunction,ViaPad*%
%ADD24C,0.600000*%
%TD*%
%TA.AperFunction,Conductor*%
%ADD25C,0.500000*%
%TD*%
G04 APERTURE END LIST*
%TO.C,Ref\u002A\u002A*%
G36*
X130257103Y-119883616D02*
G01*
X130489173Y-119885211D01*
X130692326Y-119888333D01*
X130873267Y-119893402D01*
X131038701Y-119900835D01*
X131195333Y-119911051D01*
X131349869Y-119924468D01*
X131509014Y-119941504D01*
X131513411Y-119942047D01*
X131679473Y-119962578D01*
X131867951Y-119988108D01*
X132021411Y-120009891D01*
X132775240Y-120139429D01*
X133517900Y-120309166D01*
X134247891Y-120518152D01*
X134963715Y-120765437D01*
X135663873Y-121050072D01*
X136346866Y-121371107D01*
X137011196Y-121727592D01*
X137655365Y-122118577D01*
X138277873Y-122543114D01*
X138877222Y-123000251D01*
X139451913Y-123489040D01*
X140000447Y-124008530D01*
X140521327Y-124557773D01*
X141013053Y-125135818D01*
X141474126Y-125741716D01*
X141789851Y-126200090D01*
X142193086Y-126848930D01*
X142560350Y-127517643D01*
X142890941Y-128204072D01*
X143184157Y-128906055D01*
X143439294Y-129621435D01*
X143655652Y-130348052D01*
X143832526Y-131083747D01*
X143969216Y-131826361D01*
X144065019Y-132573735D01*
X144119232Y-133323709D01*
X144121061Y-133366638D01*
X144135309Y-133714257D01*
X156553577Y-133714257D01*
X156553577Y-132465424D01*
X160024911Y-132465424D01*
X160024911Y-135555757D01*
X156553577Y-135555757D01*
X156553577Y-134306924D01*
X144135309Y-134306924D01*
X144120901Y-134658428D01*
X144069396Y-135402769D01*
X143976381Y-136146342D01*
X143842638Y-136886546D01*
X143668951Y-137620783D01*
X143456103Y-138346452D01*
X143204878Y-139060954D01*
X142916058Y-139761688D01*
X142590427Y-140446057D01*
X142228768Y-141111459D01*
X142122410Y-141291924D01*
X141711338Y-141936965D01*
X141268256Y-142555378D01*
X140794622Y-143146295D01*
X140291894Y-143708847D01*
X139761529Y-144242165D01*
X139204983Y-144745382D01*
X138623715Y-145217628D01*
X138019180Y-145658035D01*
X137392838Y-146065735D01*
X136746143Y-146439859D01*
X136080555Y-146779538D01*
X135397530Y-147083904D01*
X134698526Y-147352089D01*
X133984999Y-147583224D01*
X133258407Y-147776440D01*
X132520207Y-147930869D01*
X131771856Y-148045642D01*
X131014812Y-148119892D01*
X130629573Y-148141716D01*
X130285744Y-148156416D01*
X130285744Y-160574757D01*
X131534577Y-160574757D01*
X131534577Y-164024924D01*
X128444244Y-164024924D01*
X128444244Y-160574757D01*
X129714244Y-160574757D01*
X129714244Y-148156296D01*
X129359702Y-148141508D01*
X128599525Y-148088857D01*
X127846935Y-147995159D01*
X127103422Y-147861256D01*
X126370476Y-147687995D01*
X125649589Y-147476218D01*
X124942251Y-147226771D01*
X124249952Y-146940497D01*
X123574183Y-146618240D01*
X122916434Y-146260845D01*
X122278196Y-145869156D01*
X121660960Y-145444018D01*
X121066215Y-144986274D01*
X120495454Y-144496768D01*
X119950165Y-143976346D01*
X119431840Y-143425851D01*
X118941969Y-142846127D01*
X118482043Y-142238019D01*
X118192086Y-141816185D01*
X117784055Y-141162503D01*
X117415431Y-140495599D01*
X117085859Y-139814465D01*
X116794986Y-139118091D01*
X116542456Y-138405471D01*
X116327915Y-137675596D01*
X116151008Y-136927457D01*
X116011382Y-136160048D01*
X115929833Y-135534590D01*
X128465411Y-135534590D01*
X131513411Y-135534590D01*
X131513411Y-132486590D01*
X128465411Y-132486590D01*
X128465411Y-135534590D01*
X115929833Y-135534590D01*
X115908681Y-135372359D01*
X115901371Y-135301757D01*
X115894010Y-135207940D01*
X115886965Y-135078431D01*
X115880357Y-134919871D01*
X115874307Y-134738902D01*
X115868935Y-134542163D01*
X115864363Y-134336297D01*
X115860711Y-134127944D01*
X115858099Y-133923745D01*
X115856649Y-133730342D01*
X115856481Y-133554374D01*
X115857715Y-133402485D01*
X115860474Y-133281313D01*
X115863470Y-133216840D01*
X115933868Y-132430903D01*
X116044067Y-131656915D01*
X116193782Y-130895894D01*
X116382729Y-130148862D01*
X116610624Y-129416838D01*
X116877184Y-128700842D01*
X117182123Y-128001892D01*
X117485029Y-127396007D01*
X117870260Y-126715014D01*
X118288207Y-126060735D01*
X118738232Y-125433812D01*
X119219701Y-124834886D01*
X119731975Y-124264598D01*
X120274421Y-123723591D01*
X120846400Y-123212505D01*
X121447277Y-122731982D01*
X122076416Y-122282663D01*
X122733180Y-121865191D01*
X123279577Y-121553748D01*
X123921290Y-121228524D01*
X124588436Y-120934136D01*
X125275637Y-120672393D01*
X125977515Y-120445100D01*
X126688692Y-120254064D01*
X127403790Y-120101093D01*
X127809244Y-120031910D01*
X128038947Y-119997251D01*
X128246011Y-119968277D01*
X128437519Y-119944504D01*
X128620552Y-119925450D01*
X128802194Y-119910630D01*
X128989526Y-119899562D01*
X129189631Y-119891762D01*
X129409592Y-119886746D01*
X129656491Y-119884033D01*
X129937409Y-119883138D01*
X129989411Y-119883131D01*
X130257103Y-119883616D01*
G37*
D10*
X130257103Y-119883616D02*
X130489173Y-119885211D01*
X130692326Y-119888333D01*
X130873267Y-119893402D01*
X131038701Y-119900835D01*
X131195333Y-119911051D01*
X131349869Y-119924468D01*
X131509014Y-119941504D01*
X131513411Y-119942047D01*
X131679473Y-119962578D01*
X131867951Y-119988108D01*
X132021411Y-120009891D01*
X132775240Y-120139429D01*
X133517900Y-120309166D01*
X134247891Y-120518152D01*
X134963715Y-120765437D01*
X135663873Y-121050072D01*
X136346866Y-121371107D01*
X137011196Y-121727592D01*
X137655365Y-122118577D01*
X138277873Y-122543114D01*
X138877222Y-123000251D01*
X139451913Y-123489040D01*
X140000447Y-124008530D01*
X140521327Y-124557773D01*
X141013053Y-125135818D01*
X141474126Y-125741716D01*
X141789851Y-126200090D01*
X142193086Y-126848930D01*
X142560350Y-127517643D01*
X142890941Y-128204072D01*
X143184157Y-128906055D01*
X143439294Y-129621435D01*
X143655652Y-130348052D01*
X143832526Y-131083747D01*
X143969216Y-131826361D01*
X144065019Y-132573735D01*
X144119232Y-133323709D01*
X144121061Y-133366638D01*
X144135309Y-133714257D01*
X156553577Y-133714257D01*
X156553577Y-132465424D01*
X160024911Y-132465424D01*
X160024911Y-135555757D01*
X156553577Y-135555757D01*
X156553577Y-134306924D01*
X144135309Y-134306924D01*
X144120901Y-134658428D01*
X144069396Y-135402769D01*
X143976381Y-136146342D01*
X143842638Y-136886546D01*
X143668951Y-137620783D01*
X143456103Y-138346452D01*
X143204878Y-139060954D01*
X142916058Y-139761688D01*
X142590427Y-140446057D01*
X142228768Y-141111459D01*
X142122410Y-141291924D01*
X141711338Y-141936965D01*
X141268256Y-142555378D01*
X140794622Y-143146295D01*
X140291894Y-143708847D01*
X139761529Y-144242165D01*
X139204983Y-144745382D01*
X138623715Y-145217628D01*
X138019180Y-145658035D01*
X137392838Y-146065735D01*
X136746143Y-146439859D01*
X136080555Y-146779538D01*
X135397530Y-147083904D01*
X134698526Y-147352089D01*
X133984999Y-147583224D01*
X133258407Y-147776440D01*
X132520207Y-147930869D01*
X131771856Y-148045642D01*
X131014812Y-148119892D01*
X130629573Y-148141716D01*
X130285744Y-148156416D01*
X130285744Y-160574757D01*
X131534577Y-160574757D01*
X131534577Y-164024924D01*
X128444244Y-164024924D01*
X128444244Y-160574757D01*
X129714244Y-160574757D01*
X129714244Y-148156296D01*
X129359702Y-148141508D01*
X128599525Y-148088857D01*
X127846935Y-147995159D01*
X127103422Y-147861256D01*
X126370476Y-147687995D01*
X125649589Y-147476218D01*
X124942251Y-147226771D01*
X124249952Y-146940497D01*
X123574183Y-146618240D01*
X122916434Y-146260845D01*
X122278196Y-145869156D01*
X121660960Y-145444018D01*
X121066215Y-144986274D01*
X120495454Y-144496768D01*
X119950165Y-143976346D01*
X119431840Y-143425851D01*
X118941969Y-142846127D01*
X118482043Y-142238019D01*
X118192086Y-141816185D01*
X117784055Y-141162503D01*
X117415431Y-140495599D01*
X117085859Y-139814465D01*
X116794986Y-139118091D01*
X116542456Y-138405471D01*
X116327915Y-137675596D01*
X116151008Y-136927457D01*
X116011382Y-136160048D01*
X115929833Y-135534590D01*
X128465411Y-135534590D01*
X131513411Y-135534590D01*
X131513411Y-132486590D01*
X128465411Y-132486590D01*
X128465411Y-135534590D01*
X115929833Y-135534590D01*
X115908681Y-135372359D01*
X115901371Y-135301757D01*
X115894010Y-135207940D01*
X115886965Y-135078431D01*
X115880357Y-134919871D01*
X115874307Y-134738902D01*
X115868935Y-134542163D01*
X115864363Y-134336297D01*
X115860711Y-134127944D01*
X115858099Y-133923745D01*
X115856649Y-133730342D01*
X115856481Y-133554374D01*
X115857715Y-133402485D01*
X115860474Y-133281313D01*
X115863470Y-133216840D01*
X115933868Y-132430903D01*
X116044067Y-131656915D01*
X116193782Y-130895894D01*
X116382729Y-130148862D01*
X116610624Y-129416838D01*
X116877184Y-128700842D01*
X117182123Y-128001892D01*
X117485029Y-127396007D01*
X117870260Y-126715014D01*
X118288207Y-126060735D01*
X118738232Y-125433812D01*
X119219701Y-124834886D01*
X119731975Y-124264598D01*
X120274421Y-123723591D01*
X120846400Y-123212505D01*
X121447277Y-122731982D01*
X122076416Y-122282663D01*
X122733180Y-121865191D01*
X123279577Y-121553748D01*
X123921290Y-121228524D01*
X124588436Y-120934136D01*
X125275637Y-120672393D01*
X125977515Y-120445100D01*
X126688692Y-120254064D01*
X127403790Y-120101093D01*
X127809244Y-120031910D01*
X128038947Y-119997251D01*
X128246011Y-119968277D01*
X128437519Y-119944504D01*
X128620552Y-119925450D01*
X128802194Y-119910630D01*
X128989526Y-119899562D01*
X129189631Y-119891762D01*
X129409592Y-119886746D01*
X129656491Y-119884033D01*
X129937409Y-119883138D01*
X129989411Y-119883131D01*
X130257103Y-119883616D01*
G36*
X57391960Y-76925429D02*
G01*
X56633281Y-76773309D01*
X55887709Y-76581441D01*
X55156249Y-76350224D01*
X54439905Y-76080060D01*
X53739683Y-75771350D01*
X53056586Y-75424496D01*
X52391618Y-75039898D01*
X51745785Y-74617958D01*
X51120091Y-74159076D01*
X50690506Y-73812642D01*
X50124624Y-73311059D01*
X49588219Y-72780257D01*
X49082165Y-72222012D01*
X48607339Y-71638102D01*
X48164617Y-71030302D01*
X47754875Y-70400390D01*
X47378987Y-69750142D01*
X47037831Y-69081334D01*
X46732282Y-68395745D01*
X46463215Y-67695149D01*
X46231508Y-66981324D01*
X46038035Y-66256046D01*
X45883672Y-65521093D01*
X45769295Y-64778240D01*
X45701667Y-64089243D01*
X58704752Y-64089243D01*
X60906086Y-64089243D01*
X60906086Y-61887910D01*
X58704752Y-61887910D01*
X58704752Y-64089243D01*
X45701667Y-64089243D01*
X45695780Y-64029264D01*
X45673928Y-63636414D01*
X45659521Y-63284910D01*
X33241252Y-63284910D01*
X33241252Y-64533743D01*
X29769919Y-64533743D01*
X29769919Y-61443410D01*
X33241252Y-61443410D01*
X33241252Y-62692243D01*
X45659521Y-62692243D01*
X45673928Y-62340739D01*
X45725645Y-61592674D01*
X45818886Y-60847286D01*
X45952845Y-60106757D01*
X46126714Y-59373271D01*
X46339688Y-58649008D01*
X46590959Y-57936150D01*
X46879722Y-57236881D01*
X47205170Y-56553382D01*
X47566497Y-55887834D01*
X47962895Y-55242421D01*
X48393559Y-54619325D01*
X48655904Y-54272623D01*
X48864725Y-54014471D01*
X49097752Y-53742157D01*
X49347593Y-53463523D01*
X49606859Y-53186407D01*
X49868160Y-52918650D01*
X50124105Y-52668093D01*
X50367304Y-52442575D01*
X50449752Y-52369518D01*
X51053624Y-51869362D01*
X51678543Y-51405757D01*
X52323507Y-50979118D01*
X52987516Y-50589861D01*
X53669568Y-50238403D01*
X54368661Y-49925159D01*
X55083793Y-49650545D01*
X55813964Y-49414978D01*
X56558171Y-49218872D01*
X57315413Y-49062645D01*
X58084688Y-48946711D01*
X58864995Y-48871488D01*
X58874086Y-48870857D01*
X59001017Y-48862905D01*
X59129162Y-48856280D01*
X59244779Y-48851605D01*
X59334127Y-48849507D01*
X59345044Y-48849452D01*
X59509086Y-48849243D01*
X59509086Y-36424410D01*
X58260252Y-36424410D01*
X58260252Y-32953076D01*
X61350586Y-32953076D01*
X61350586Y-36424410D01*
X60080586Y-36424410D01*
X60080586Y-48849243D01*
X60237652Y-48849243D01*
X60316866Y-48850721D01*
X60425609Y-48854776D01*
X60551191Y-48860840D01*
X60680927Y-48868344D01*
X60719193Y-48870820D01*
X61494354Y-48943319D01*
X62260566Y-49056942D01*
X63016658Y-49211332D01*
X63761458Y-49406129D01*
X64493793Y-49640977D01*
X65212490Y-49915515D01*
X65916378Y-50229386D01*
X66604283Y-50582233D01*
X66938586Y-50771240D01*
X67589237Y-51174999D01*
X68215958Y-51612902D01*
X68817349Y-52083470D01*
X69392010Y-52585222D01*
X69938541Y-53116677D01*
X70455540Y-53676357D01*
X70941609Y-54262780D01*
X71395346Y-54874466D01*
X71815352Y-55509935D01*
X72200227Y-56167708D01*
X72398909Y-56543326D01*
X72718987Y-57211749D01*
X73000647Y-57885834D01*
X73244903Y-58569074D01*
X73452766Y-59264961D01*
X73625249Y-59976987D01*
X73763365Y-60708645D01*
X73868127Y-61463426D01*
X73893459Y-61697410D01*
X73900820Y-61791227D01*
X73907865Y-61920736D01*
X73914473Y-62079296D01*
X73920523Y-62260265D01*
X73925894Y-62457004D01*
X73930467Y-62662870D01*
X73934119Y-62871223D01*
X73936731Y-63075422D01*
X73938181Y-63268825D01*
X73938349Y-63444792D01*
X73937114Y-63596682D01*
X73934356Y-63717854D01*
X73931360Y-63782326D01*
X73916523Y-63983188D01*
X73896303Y-64210622D01*
X73872272Y-64449443D01*
X73845999Y-64684466D01*
X73819057Y-64900505D01*
X73805432Y-64999410D01*
X73675462Y-65758777D01*
X73505588Y-66505692D01*
X73296708Y-67238805D01*
X73049715Y-67956766D01*
X72765508Y-68658225D01*
X72444980Y-69341833D01*
X72089028Y-70006238D01*
X71698547Y-70650091D01*
X71274433Y-71272041D01*
X70817582Y-71870739D01*
X70328890Y-72444835D01*
X69809251Y-72992978D01*
X69259563Y-73513818D01*
X68680720Y-74006005D01*
X68073618Y-74468190D01*
X67439154Y-74899021D01*
X67096822Y-75111352D01*
X66421210Y-75492795D01*
X65729576Y-75835075D01*
X65022161Y-76138112D01*
X64299210Y-76401825D01*
X63560967Y-76626135D01*
X62807675Y-76810961D01*
X62039579Y-76956224D01*
X61256921Y-77061843D01*
X61117752Y-77076316D01*
X60962396Y-77088978D01*
X60772795Y-77099930D01*
X60557010Y-77109052D01*
X60323099Y-77116223D01*
X60079122Y-77121322D01*
X59833139Y-77124229D01*
X59593208Y-77124823D01*
X59367388Y-77122985D01*
X59163741Y-77118592D01*
X58990323Y-77111526D01*
X58944625Y-77108817D01*
X58704752Y-77086907D01*
X58162743Y-77037399D01*
X57391960Y-76925429D01*
G37*
X57391960Y-76925429D02*
X56633281Y-76773309D01*
X55887709Y-76581441D01*
X55156249Y-76350224D01*
X54439905Y-76080060D01*
X53739683Y-75771350D01*
X53056586Y-75424496D01*
X52391618Y-75039898D01*
X51745785Y-74617958D01*
X51120091Y-74159076D01*
X50690506Y-73812642D01*
X50124624Y-73311059D01*
X49588219Y-72780257D01*
X49082165Y-72222012D01*
X48607339Y-71638102D01*
X48164617Y-71030302D01*
X47754875Y-70400390D01*
X47378987Y-69750142D01*
X47037831Y-69081334D01*
X46732282Y-68395745D01*
X46463215Y-67695149D01*
X46231508Y-66981324D01*
X46038035Y-66256046D01*
X45883672Y-65521093D01*
X45769295Y-64778240D01*
X45701667Y-64089243D01*
X58704752Y-64089243D01*
X60906086Y-64089243D01*
X60906086Y-61887910D01*
X58704752Y-61887910D01*
X58704752Y-64089243D01*
X45701667Y-64089243D01*
X45695780Y-64029264D01*
X45673928Y-63636414D01*
X45659521Y-63284910D01*
X33241252Y-63284910D01*
X33241252Y-64533743D01*
X29769919Y-64533743D01*
X29769919Y-61443410D01*
X33241252Y-61443410D01*
X33241252Y-62692243D01*
X45659521Y-62692243D01*
X45673928Y-62340739D01*
X45725645Y-61592674D01*
X45818886Y-60847286D01*
X45952845Y-60106757D01*
X46126714Y-59373271D01*
X46339688Y-58649008D01*
X46590959Y-57936150D01*
X46879722Y-57236881D01*
X47205170Y-56553382D01*
X47566497Y-55887834D01*
X47962895Y-55242421D01*
X48393559Y-54619325D01*
X48655904Y-54272623D01*
X48864725Y-54014471D01*
X49097752Y-53742157D01*
X49347593Y-53463523D01*
X49606859Y-53186407D01*
X49868160Y-52918650D01*
X50124105Y-52668093D01*
X50367304Y-52442575D01*
X50449752Y-52369518D01*
X51053624Y-51869362D01*
X51678543Y-51405757D01*
X52323507Y-50979118D01*
X52987516Y-50589861D01*
X53669568Y-50238403D01*
X54368661Y-49925159D01*
X55083793Y-49650545D01*
X55813964Y-49414978D01*
X56558171Y-49218872D01*
X57315413Y-49062645D01*
X58084688Y-48946711D01*
X58864995Y-48871488D01*
X58874086Y-48870857D01*
X59001017Y-48862905D01*
X59129162Y-48856280D01*
X59244779Y-48851605D01*
X59334127Y-48849507D01*
X59345044Y-48849452D01*
X59509086Y-48849243D01*
X59509086Y-36424410D01*
X58260252Y-36424410D01*
X58260252Y-32953076D01*
X61350586Y-32953076D01*
X61350586Y-36424410D01*
X60080586Y-36424410D01*
X60080586Y-48849243D01*
X60237652Y-48849243D01*
X60316866Y-48850721D01*
X60425609Y-48854776D01*
X60551191Y-48860840D01*
X60680927Y-48868344D01*
X60719193Y-48870820D01*
X61494354Y-48943319D01*
X62260566Y-49056942D01*
X63016658Y-49211332D01*
X63761458Y-49406129D01*
X64493793Y-49640977D01*
X65212490Y-49915515D01*
X65916378Y-50229386D01*
X66604283Y-50582233D01*
X66938586Y-50771240D01*
X67589237Y-51174999D01*
X68215958Y-51612902D01*
X68817349Y-52083470D01*
X69392010Y-52585222D01*
X69938541Y-53116677D01*
X70455540Y-53676357D01*
X70941609Y-54262780D01*
X71395346Y-54874466D01*
X71815352Y-55509935D01*
X72200227Y-56167708D01*
X72398909Y-56543326D01*
X72718987Y-57211749D01*
X73000647Y-57885834D01*
X73244903Y-58569074D01*
X73452766Y-59264961D01*
X73625249Y-59976987D01*
X73763365Y-60708645D01*
X73868127Y-61463426D01*
X73893459Y-61697410D01*
X73900820Y-61791227D01*
X73907865Y-61920736D01*
X73914473Y-62079296D01*
X73920523Y-62260265D01*
X73925894Y-62457004D01*
X73930467Y-62662870D01*
X73934119Y-62871223D01*
X73936731Y-63075422D01*
X73938181Y-63268825D01*
X73938349Y-63444792D01*
X73937114Y-63596682D01*
X73934356Y-63717854D01*
X73931360Y-63782326D01*
X73916523Y-63983188D01*
X73896303Y-64210622D01*
X73872272Y-64449443D01*
X73845999Y-64684466D01*
X73819057Y-64900505D01*
X73805432Y-64999410D01*
X73675462Y-65758777D01*
X73505588Y-66505692D01*
X73296708Y-67238805D01*
X73049715Y-67956766D01*
X72765508Y-68658225D01*
X72444980Y-69341833D01*
X72089028Y-70006238D01*
X71698547Y-70650091D01*
X71274433Y-71272041D01*
X70817582Y-71870739D01*
X70328890Y-72444835D01*
X69809251Y-72992978D01*
X69259563Y-73513818D01*
X68680720Y-74006005D01*
X68073618Y-74468190D01*
X67439154Y-74899021D01*
X67096822Y-75111352D01*
X66421210Y-75492795D01*
X65729576Y-75835075D01*
X65022161Y-76138112D01*
X64299210Y-76401825D01*
X63560967Y-76626135D01*
X62807675Y-76810961D01*
X62039579Y-76956224D01*
X61256921Y-77061843D01*
X61117752Y-77076316D01*
X60962396Y-77088978D01*
X60772795Y-77099930D01*
X60557010Y-77109052D01*
X60323099Y-77116223D01*
X60079122Y-77121322D01*
X59833139Y-77124229D01*
X59593208Y-77124823D01*
X59367388Y-77122985D01*
X59163741Y-77118592D01*
X58990323Y-77111526D01*
X58944625Y-77108817D01*
X58704752Y-77086907D01*
X58162743Y-77037399D01*
X57391960Y-76925429D01*
G36*
X131555744Y-36440502D02*
G01*
X130285744Y-36440502D01*
X130285744Y-48843362D01*
X130333369Y-48853002D01*
X130370256Y-48857015D01*
X130441013Y-48861806D01*
X130537194Y-48866906D01*
X130650352Y-48871848D01*
X130721076Y-48874480D01*
X131246673Y-48906252D01*
X131795009Y-48964951D01*
X132357470Y-49049059D01*
X132925443Y-49157058D01*
X133490315Y-49287430D01*
X134043471Y-49438656D01*
X134212160Y-49489824D01*
X134929737Y-49734682D01*
X135635403Y-50019086D01*
X136326133Y-50341432D01*
X136998900Y-50700113D01*
X137650678Y-51093525D01*
X138278442Y-51520063D01*
X138831748Y-51940015D01*
X139423444Y-52440099D01*
X139983901Y-52968205D01*
X140512399Y-53523019D01*
X141008220Y-54103227D01*
X141470644Y-54707513D01*
X141898953Y-55334564D01*
X142292427Y-55983066D01*
X142650348Y-56651704D01*
X142971996Y-57339164D01*
X143256652Y-58044132D01*
X143503598Y-58765293D01*
X143712114Y-59501334D01*
X143881482Y-60250939D01*
X144010982Y-61012794D01*
X144074402Y-61523002D01*
X144087004Y-61651270D01*
X144099927Y-61799874D01*
X144112558Y-61959884D01*
X144124282Y-62122373D01*
X144134484Y-62278410D01*
X144142550Y-62419067D01*
X144147864Y-62535415D01*
X144149812Y-62618377D01*
X144149910Y-62708336D01*
X156574744Y-62708336D01*
X156574744Y-61459502D01*
X160024910Y-61459502D01*
X160024910Y-64549836D01*
X156574744Y-64549836D01*
X156574744Y-63279836D01*
X144157498Y-63279836D01*
X144131417Y-63739225D01*
X144071334Y-64486333D01*
X143976575Y-65213150D01*
X143846081Y-65925111D01*
X143678795Y-66627650D01*
X143473660Y-67326203D01*
X143377233Y-67616021D01*
X143107896Y-68334247D01*
X142800612Y-69034696D01*
X142456475Y-69715952D01*
X142076581Y-70376598D01*
X141662028Y-71015217D01*
X141213911Y-71630393D01*
X140733326Y-72220709D01*
X140221369Y-72784749D01*
X139679136Y-73321097D01*
X139107724Y-73828335D01*
X138508227Y-74305048D01*
X137881743Y-74749818D01*
X137831660Y-74783202D01*
X137173345Y-75194888D01*
X136497708Y-75568049D01*
X135805552Y-75902419D01*
X135097677Y-76197731D01*
X134374887Y-76453717D01*
X133637983Y-76670111D01*
X132887767Y-76846647D01*
X132125041Y-76983056D01*
X131350607Y-77079072D01*
X130804327Y-77121966D01*
X130621873Y-77130440D01*
X130408194Y-77136256D01*
X130174316Y-77139420D01*
X129931265Y-77139939D01*
X129690064Y-77137823D01*
X129461739Y-77133077D01*
X129257315Y-77125711D01*
X129163910Y-77120834D01*
X128398578Y-77054317D01*
X127639494Y-76946329D01*
X126888393Y-76797491D01*
X126147010Y-76608423D01*
X125417080Y-76379746D01*
X124700339Y-76112082D01*
X123998521Y-75806050D01*
X123313360Y-75462273D01*
X122646593Y-75081370D01*
X121999954Y-74663963D01*
X121692077Y-74447094D01*
X121081688Y-73978916D01*
X120499795Y-73479893D01*
X119947358Y-72951335D01*
X119425340Y-72394555D01*
X118934702Y-71810864D01*
X118476407Y-71201573D01*
X118051416Y-70567994D01*
X117660691Y-69911437D01*
X117305194Y-69233214D01*
X116985887Y-68534636D01*
X116703732Y-67817015D01*
X116590405Y-67492002D01*
X116366169Y-66757071D01*
X116182990Y-66013934D01*
X116040774Y-65264306D01*
X115939425Y-64509900D01*
X115907070Y-64105336D01*
X128909910Y-64105336D01*
X131111244Y-64105336D01*
X131111244Y-61904002D01*
X128909910Y-61904002D01*
X128909910Y-64105336D01*
X115907070Y-64105336D01*
X115878846Y-63752431D01*
X115858940Y-62993612D01*
X115879613Y-62235158D01*
X115906387Y-61904002D01*
X115940768Y-61478783D01*
X116042308Y-60726199D01*
X116184138Y-59979123D01*
X116366161Y-59239267D01*
X116588281Y-58508345D01*
X116850402Y-57788071D01*
X117152429Y-57080160D01*
X117177480Y-57025903D01*
X117519003Y-56340441D01*
X117897796Y-55674398D01*
X118312713Y-55029412D01*
X118762603Y-54407126D01*
X119246320Y-53809180D01*
X119762713Y-53237213D01*
X120000046Y-52994138D01*
X120561629Y-52462182D01*
X121148230Y-51964033D01*
X121758589Y-51500308D01*
X122391448Y-51071624D01*
X123045547Y-50678597D01*
X123719629Y-50321842D01*
X124412434Y-50001977D01*
X125122703Y-49719617D01*
X125849178Y-49475380D01*
X126590599Y-49269880D01*
X127345709Y-49103735D01*
X128113248Y-48977561D01*
X128237829Y-48961033D01*
X128384817Y-48943696D01*
X128552323Y-48926461D01*
X128731177Y-48910047D01*
X128912210Y-48895172D01*
X129086252Y-48882553D01*
X129244131Y-48872909D01*
X129376679Y-48866957D01*
X129460177Y-48865335D01*
X129548428Y-48863938D01*
X129622831Y-48860209D01*
X129671446Y-48854844D01*
X129680762Y-48852488D01*
X129684055Y-48848626D01*
X129687127Y-48838717D01*
X129689986Y-48821354D01*
X129692638Y-48795131D01*
X129695092Y-48758642D01*
X129697356Y-48710478D01*
X129699436Y-48649235D01*
X129701340Y-48573505D01*
X129703077Y-48481882D01*
X129704653Y-48372959D01*
X129706076Y-48245330D01*
X129707354Y-48097588D01*
X129708494Y-47928326D01*
X129709504Y-47736138D01*
X129710392Y-47519617D01*
X129711165Y-47277357D01*
X129711830Y-47007951D01*
X129712395Y-46709993D01*
X129712868Y-46382076D01*
X129713257Y-46022793D01*
X129713568Y-45630738D01*
X129713810Y-45204504D01*
X129713990Y-44742684D01*
X129714116Y-44243873D01*
X129714195Y-43706663D01*
X129714235Y-43129648D01*
X129714244Y-42640071D01*
X129714244Y-36440502D01*
X128465410Y-36440502D01*
X128465410Y-32969169D01*
X131555744Y-32969169D01*
X131555744Y-36440502D01*
G37*
X131555744Y-36440502D02*
X130285744Y-36440502D01*
X130285744Y-48843362D01*
X130333369Y-48853002D01*
X130370256Y-48857015D01*
X130441013Y-48861806D01*
X130537194Y-48866906D01*
X130650352Y-48871848D01*
X130721076Y-48874480D01*
X131246673Y-48906252D01*
X131795009Y-48964951D01*
X132357470Y-49049059D01*
X132925443Y-49157058D01*
X133490315Y-49287430D01*
X134043471Y-49438656D01*
X134212160Y-49489824D01*
X134929737Y-49734682D01*
X135635403Y-50019086D01*
X136326133Y-50341432D01*
X136998900Y-50700113D01*
X137650678Y-51093525D01*
X138278442Y-51520063D01*
X138831748Y-51940015D01*
X139423444Y-52440099D01*
X139983901Y-52968205D01*
X140512399Y-53523019D01*
X141008220Y-54103227D01*
X141470644Y-54707513D01*
X141898953Y-55334564D01*
X142292427Y-55983066D01*
X142650348Y-56651704D01*
X142971996Y-57339164D01*
X143256652Y-58044132D01*
X143503598Y-58765293D01*
X143712114Y-59501334D01*
X143881482Y-60250939D01*
X144010982Y-61012794D01*
X144074402Y-61523002D01*
X144087004Y-61651270D01*
X144099927Y-61799874D01*
X144112558Y-61959884D01*
X144124282Y-62122373D01*
X144134484Y-62278410D01*
X144142550Y-62419067D01*
X144147864Y-62535415D01*
X144149812Y-62618377D01*
X144149910Y-62708336D01*
X156574744Y-62708336D01*
X156574744Y-61459502D01*
X160024910Y-61459502D01*
X160024910Y-64549836D01*
X156574744Y-64549836D01*
X156574744Y-63279836D01*
X144157498Y-63279836D01*
X144131417Y-63739225D01*
X144071334Y-64486333D01*
X143976575Y-65213150D01*
X143846081Y-65925111D01*
X143678795Y-66627650D01*
X143473660Y-67326203D01*
X143377233Y-67616021D01*
X143107896Y-68334247D01*
X142800612Y-69034696D01*
X142456475Y-69715952D01*
X142076581Y-70376598D01*
X141662028Y-71015217D01*
X141213911Y-71630393D01*
X140733326Y-72220709D01*
X140221369Y-72784749D01*
X139679136Y-73321097D01*
X139107724Y-73828335D01*
X138508227Y-74305048D01*
X137881743Y-74749818D01*
X137831660Y-74783202D01*
X137173345Y-75194888D01*
X136497708Y-75568049D01*
X135805552Y-75902419D01*
X135097677Y-76197731D01*
X134374887Y-76453717D01*
X133637983Y-76670111D01*
X132887767Y-76846647D01*
X132125041Y-76983056D01*
X131350607Y-77079072D01*
X130804327Y-77121966D01*
X130621873Y-77130440D01*
X130408194Y-77136256D01*
X130174316Y-77139420D01*
X129931265Y-77139939D01*
X129690064Y-77137823D01*
X129461739Y-77133077D01*
X129257315Y-77125711D01*
X129163910Y-77120834D01*
X128398578Y-77054317D01*
X127639494Y-76946329D01*
X126888393Y-76797491D01*
X126147010Y-76608423D01*
X125417080Y-76379746D01*
X124700339Y-76112082D01*
X123998521Y-75806050D01*
X123313360Y-75462273D01*
X122646593Y-75081370D01*
X121999954Y-74663963D01*
X121692077Y-74447094D01*
X121081688Y-73978916D01*
X120499795Y-73479893D01*
X119947358Y-72951335D01*
X119425340Y-72394555D01*
X118934702Y-71810864D01*
X118476407Y-71201573D01*
X118051416Y-70567994D01*
X117660691Y-69911437D01*
X117305194Y-69233214D01*
X116985887Y-68534636D01*
X116703732Y-67817015D01*
X116590405Y-67492002D01*
X116366169Y-66757071D01*
X116182990Y-66013934D01*
X116040774Y-65264306D01*
X115939425Y-64509900D01*
X115907070Y-64105336D01*
X128909910Y-64105336D01*
X131111244Y-64105336D01*
X131111244Y-61904002D01*
X128909910Y-61904002D01*
X128909910Y-64105336D01*
X115907070Y-64105336D01*
X115878846Y-63752431D01*
X115858940Y-62993612D01*
X115879613Y-62235158D01*
X115906387Y-61904002D01*
X115940768Y-61478783D01*
X116042308Y-60726199D01*
X116184138Y-59979123D01*
X116366161Y-59239267D01*
X116588281Y-58508345D01*
X116850402Y-57788071D01*
X117152429Y-57080160D01*
X117177480Y-57025903D01*
X117519003Y-56340441D01*
X117897796Y-55674398D01*
X118312713Y-55029412D01*
X118762603Y-54407126D01*
X119246320Y-53809180D01*
X119762713Y-53237213D01*
X120000046Y-52994138D01*
X120561629Y-52462182D01*
X121148230Y-51964033D01*
X121758589Y-51500308D01*
X122391448Y-51071624D01*
X123045547Y-50678597D01*
X123719629Y-50321842D01*
X124412434Y-50001977D01*
X125122703Y-49719617D01*
X125849178Y-49475380D01*
X126590599Y-49269880D01*
X127345709Y-49103735D01*
X128113248Y-48977561D01*
X128237829Y-48961033D01*
X128384817Y-48943696D01*
X128552323Y-48926461D01*
X128731177Y-48910047D01*
X128912210Y-48895172D01*
X129086252Y-48882553D01*
X129244131Y-48872909D01*
X129376679Y-48866957D01*
X129460177Y-48865335D01*
X129548428Y-48863938D01*
X129622831Y-48860209D01*
X129671446Y-48854844D01*
X129680762Y-48852488D01*
X129684055Y-48848626D01*
X129687127Y-48838717D01*
X129689986Y-48821354D01*
X129692638Y-48795131D01*
X129695092Y-48758642D01*
X129697356Y-48710478D01*
X129699436Y-48649235D01*
X129701340Y-48573505D01*
X129703077Y-48481882D01*
X129704653Y-48372959D01*
X129706076Y-48245330D01*
X129707354Y-48097588D01*
X129708494Y-47928326D01*
X129709504Y-47736138D01*
X129710392Y-47519617D01*
X129711165Y-47277357D01*
X129711830Y-47007951D01*
X129712395Y-46709993D01*
X129712868Y-46382076D01*
X129713257Y-46022793D01*
X129713568Y-45630738D01*
X129713810Y-45204504D01*
X129713990Y-44742684D01*
X129714116Y-44243873D01*
X129714195Y-43706663D01*
X129714235Y-43129648D01*
X129714244Y-42640071D01*
X129714244Y-36440502D01*
X128465410Y-36440502D01*
X128465410Y-32969169D01*
X131555744Y-32969169D01*
X131555744Y-36440502D01*
G36*
X73887513Y-135328836D02*
G01*
X73866937Y-135521058D01*
X73841239Y-135728259D01*
X73809884Y-135958622D01*
X73805511Y-135989661D01*
X73677008Y-136749139D01*
X73508187Y-137497135D01*
X73299855Y-138232216D01*
X73052818Y-138952947D01*
X72767882Y-139657897D01*
X72445853Y-140345632D01*
X72087537Y-141014718D01*
X71693740Y-141663723D01*
X71265269Y-142291214D01*
X70802929Y-142895756D01*
X70307526Y-143475918D01*
X69779867Y-144030265D01*
X69220758Y-144557365D01*
X68769502Y-144943611D01*
X68171262Y-145407574D01*
X67549005Y-145838228D01*
X66904885Y-146234707D01*
X66241052Y-146596144D01*
X65559657Y-146921673D01*
X64862851Y-147210428D01*
X64152786Y-147461543D01*
X63431612Y-147674150D01*
X62701481Y-147847383D01*
X61964543Y-147980377D01*
X61222951Y-148072264D01*
X60942600Y-148096057D01*
X60792844Y-148107009D01*
X60642445Y-148117737D01*
X60501906Y-148127513D01*
X60381734Y-148135606D01*
X60292433Y-148141287D01*
X60286961Y-148141614D01*
X60080586Y-148153862D01*
X60080586Y-160574744D01*
X61350586Y-160574744D01*
X61350586Y-164024911D01*
X58260252Y-164024911D01*
X58260252Y-160574744D01*
X59509086Y-160574744D01*
X59509086Y-148153711D01*
X59334461Y-148141874D01*
X59236700Y-148135658D01*
X59115243Y-148128532D01*
X58988681Y-148121564D01*
X58916419Y-148117823D01*
X58351759Y-148074582D01*
X57764529Y-148000794D01*
X57160506Y-147897355D01*
X56545467Y-147765159D01*
X56376419Y-147724194D01*
X55633151Y-147518108D01*
X54905574Y-147273072D01*
X54194972Y-146989940D01*
X53502629Y-146669569D01*
X52829828Y-146312813D01*
X52177853Y-145920528D01*
X51547988Y-145493570D01*
X50941517Y-145032794D01*
X50359722Y-144539054D01*
X49803889Y-144013208D01*
X49275300Y-143456110D01*
X48775238Y-142868615D01*
X48439259Y-142434911D01*
X48016576Y-141833407D01*
X47625322Y-141207465D01*
X47266515Y-140559942D01*
X46941172Y-139893695D01*
X46650309Y-139211582D01*
X46394944Y-138516460D01*
X46176094Y-137811186D01*
X45994775Y-137098619D01*
X45852005Y-136381616D01*
X45748800Y-135663034D01*
X45700627Y-135111244D01*
X58704752Y-135111244D01*
X60906086Y-135111244D01*
X60906086Y-132888744D01*
X58704752Y-132888744D01*
X58704752Y-135111244D01*
X45700627Y-135111244D01*
X45686177Y-134945730D01*
X45672777Y-134661452D01*
X45659425Y-134285744D01*
X33241252Y-134285744D01*
X33241252Y-135555744D01*
X29769919Y-135555744D01*
X29769919Y-132444244D01*
X33241252Y-132444244D01*
X33241252Y-133714244D01*
X45659425Y-133714244D01*
X45672777Y-133338536D01*
X45703799Y-132817474D01*
X45759792Y-132274531D01*
X45839143Y-131720770D01*
X45940237Y-131167252D01*
X46061458Y-130625039D01*
X46079331Y-130553095D01*
X46288424Y-129807493D01*
X46536089Y-129078513D01*
X46821478Y-128367352D01*
X47143741Y-127675209D01*
X47502027Y-127003281D01*
X47895487Y-126352766D01*
X48323271Y-125724861D01*
X48784529Y-125120763D01*
X49278411Y-124541671D01*
X49804067Y-123988782D01*
X50360647Y-123463293D01*
X50947302Y-122966403D01*
X51563181Y-122499309D01*
X52016086Y-122187503D01*
X52669345Y-121781047D01*
X53341783Y-121412109D01*
X54032182Y-121081110D01*
X54739324Y-120788470D01*
X55461993Y-120534611D01*
X56198970Y-120319953D01*
X56949040Y-120144918D01*
X57710985Y-120009927D01*
X58483588Y-119915401D01*
X58620086Y-119903026D01*
X58736373Y-119894674D01*
X58882451Y-119886752D01*
X59051221Y-119879423D01*
X59235580Y-119872851D01*
X59428427Y-119867200D01*
X59622663Y-119862634D01*
X59811185Y-119859317D01*
X59986893Y-119857413D01*
X60142686Y-119857085D01*
X60271462Y-119858498D01*
X60366121Y-119861815D01*
X60376919Y-119862485D01*
X60597432Y-119877464D01*
X60782057Y-119890428D01*
X60937160Y-119901913D01*
X61069108Y-119912457D01*
X61184271Y-119922597D01*
X61289014Y-119932870D01*
X61389705Y-119943813D01*
X61492712Y-119955963D01*
X61509336Y-119957994D01*
X62274571Y-120072863D01*
X63028115Y-120227932D01*
X63768612Y-120422414D01*
X64494712Y-120655526D01*
X65205059Y-120926480D01*
X65898301Y-121234492D01*
X66573085Y-121578776D01*
X67228056Y-121958546D01*
X67861863Y-122373018D01*
X68473151Y-122821406D01*
X69060567Y-123302924D01*
X69622758Y-123816787D01*
X70158371Y-124362209D01*
X70666052Y-124938406D01*
X71144449Y-125544591D01*
X71151832Y-125554494D01*
X71591125Y-126179464D01*
X71995557Y-126827320D01*
X72364290Y-127495973D01*
X72696484Y-128183334D01*
X72991301Y-128887314D01*
X73247901Y-129605823D01*
X73465446Y-130336772D01*
X73643096Y-131078072D01*
X73780012Y-131827633D01*
X73837712Y-132243161D01*
X73862439Y-132450122D01*
X73882663Y-132636482D01*
X73898803Y-132810072D01*
X73911277Y-132978724D01*
X73920503Y-133150268D01*
X73926901Y-133332534D01*
X73930889Y-133533355D01*
X73932885Y-133760561D01*
X73933307Y-134021982D01*
X73933299Y-134031744D01*
X73932243Y-134305962D01*
X73929269Y-134546053D01*
X73923843Y-134760201D01*
X73915432Y-134956592D01*
X73905554Y-135111244D01*
X73903499Y-135143409D01*
X73887513Y-135328836D01*
G37*
X73887513Y-135328836D02*
X73866937Y-135521058D01*
X73841239Y-135728259D01*
X73809884Y-135958622D01*
X73805511Y-135989661D01*
X73677008Y-136749139D01*
X73508187Y-137497135D01*
X73299855Y-138232216D01*
X73052818Y-138952947D01*
X72767882Y-139657897D01*
X72445853Y-140345632D01*
X72087537Y-141014718D01*
X71693740Y-141663723D01*
X71265269Y-142291214D01*
X70802929Y-142895756D01*
X70307526Y-143475918D01*
X69779867Y-144030265D01*
X69220758Y-144557365D01*
X68769502Y-144943611D01*
X68171262Y-145407574D01*
X67549005Y-145838228D01*
X66904885Y-146234707D01*
X66241052Y-146596144D01*
X65559657Y-146921673D01*
X64862851Y-147210428D01*
X64152786Y-147461543D01*
X63431612Y-147674150D01*
X62701481Y-147847383D01*
X61964543Y-147980377D01*
X61222951Y-148072264D01*
X60942600Y-148096057D01*
X60792844Y-148107009D01*
X60642445Y-148117737D01*
X60501906Y-148127513D01*
X60381734Y-148135606D01*
X60292433Y-148141287D01*
X60286961Y-148141614D01*
X60080586Y-148153862D01*
X60080586Y-160574744D01*
X61350586Y-160574744D01*
X61350586Y-164024911D01*
X58260252Y-164024911D01*
X58260252Y-160574744D01*
X59509086Y-160574744D01*
X59509086Y-148153711D01*
X59334461Y-148141874D01*
X59236700Y-148135658D01*
X59115243Y-148128532D01*
X58988681Y-148121564D01*
X58916419Y-148117823D01*
X58351759Y-148074582D01*
X57764529Y-148000794D01*
X57160506Y-147897355D01*
X56545467Y-147765159D01*
X56376419Y-147724194D01*
X55633151Y-147518108D01*
X54905574Y-147273072D01*
X54194972Y-146989940D01*
X53502629Y-146669569D01*
X52829828Y-146312813D01*
X52177853Y-145920528D01*
X51547988Y-145493570D01*
X50941517Y-145032794D01*
X50359722Y-144539054D01*
X49803889Y-144013208D01*
X49275300Y-143456110D01*
X48775238Y-142868615D01*
X48439259Y-142434911D01*
X48016576Y-141833407D01*
X47625322Y-141207465D01*
X47266515Y-140559942D01*
X46941172Y-139893695D01*
X46650309Y-139211582D01*
X46394944Y-138516460D01*
X46176094Y-137811186D01*
X45994775Y-137098619D01*
X45852005Y-136381616D01*
X45748800Y-135663034D01*
X45700627Y-135111244D01*
X58704752Y-135111244D01*
X60906086Y-135111244D01*
X60906086Y-132888744D01*
X58704752Y-132888744D01*
X58704752Y-135111244D01*
X45700627Y-135111244D01*
X45686177Y-134945730D01*
X45672777Y-134661452D01*
X45659425Y-134285744D01*
X33241252Y-134285744D01*
X33241252Y-135555744D01*
X29769919Y-135555744D01*
X29769919Y-132444244D01*
X33241252Y-132444244D01*
X33241252Y-133714244D01*
X45659425Y-133714244D01*
X45672777Y-133338536D01*
X45703799Y-132817474D01*
X45759792Y-132274531D01*
X45839143Y-131720770D01*
X45940237Y-131167252D01*
X46061458Y-130625039D01*
X46079331Y-130553095D01*
X46288424Y-129807493D01*
X46536089Y-129078513D01*
X46821478Y-128367352D01*
X47143741Y-127675209D01*
X47502027Y-127003281D01*
X47895487Y-126352766D01*
X48323271Y-125724861D01*
X48784529Y-125120763D01*
X49278411Y-124541671D01*
X49804067Y-123988782D01*
X50360647Y-123463293D01*
X50947302Y-122966403D01*
X51563181Y-122499309D01*
X52016086Y-122187503D01*
X52669345Y-121781047D01*
X53341783Y-121412109D01*
X54032182Y-121081110D01*
X54739324Y-120788470D01*
X55461993Y-120534611D01*
X56198970Y-120319953D01*
X56949040Y-120144918D01*
X57710985Y-120009927D01*
X58483588Y-119915401D01*
X58620086Y-119903026D01*
X58736373Y-119894674D01*
X58882451Y-119886752D01*
X59051221Y-119879423D01*
X59235580Y-119872851D01*
X59428427Y-119867200D01*
X59622663Y-119862634D01*
X59811185Y-119859317D01*
X59986893Y-119857413D01*
X60142686Y-119857085D01*
X60271462Y-119858498D01*
X60366121Y-119861815D01*
X60376919Y-119862485D01*
X60597432Y-119877464D01*
X60782057Y-119890428D01*
X60937160Y-119901913D01*
X61069108Y-119912457D01*
X61184271Y-119922597D01*
X61289014Y-119932870D01*
X61389705Y-119943813D01*
X61492712Y-119955963D01*
X61509336Y-119957994D01*
X62274571Y-120072863D01*
X63028115Y-120227932D01*
X63768612Y-120422414D01*
X64494712Y-120655526D01*
X65205059Y-120926480D01*
X65898301Y-121234492D01*
X66573085Y-121578776D01*
X67228056Y-121958546D01*
X67861863Y-122373018D01*
X68473151Y-122821406D01*
X69060567Y-123302924D01*
X69622758Y-123816787D01*
X70158371Y-124362209D01*
X70666052Y-124938406D01*
X71144449Y-125544591D01*
X71151832Y-125554494D01*
X71591125Y-126179464D01*
X71995557Y-126827320D01*
X72364290Y-127495973D01*
X72696484Y-128183334D01*
X72991301Y-128887314D01*
X73247901Y-129605823D01*
X73465446Y-130336772D01*
X73643096Y-131078072D01*
X73780012Y-131827633D01*
X73837712Y-132243161D01*
X73862439Y-132450122D01*
X73882663Y-132636482D01*
X73898803Y-132810072D01*
X73911277Y-132978724D01*
X73920503Y-133150268D01*
X73926901Y-133332534D01*
X73930889Y-133533355D01*
X73932885Y-133760561D01*
X73933307Y-134021982D01*
X73933299Y-134031744D01*
X73932243Y-134305962D01*
X73929269Y-134546053D01*
X73923843Y-134760201D01*
X73915432Y-134956592D01*
X73905554Y-135111244D01*
X73903499Y-135143409D01*
X73887513Y-135328836D01*
%TD*%
D11*
%TO.P,JA1,1,In*%
%TO.N,N/C*%
X59805838Y-166012580D03*
D12*
%TO.P,JA1,2,Ext*%
X64185838Y-162522580D03*
D13*
X64185838Y-165512580D03*
X55425838Y-165512580D03*
D14*
X64185838Y-162072580D03*
X55425838Y-162072580D03*
D12*
X55425838Y-162522580D03*
%TD*%
D11*
%TO.P,JA1,1,In*%
%TO.N,N/C*%
X129989947Y-166021704D03*
D12*
%TO.P,JA1,2,Ext*%
X134369947Y-162531704D03*
D13*
X134369947Y-165521704D03*
X125609947Y-165521704D03*
D14*
X134369947Y-162081704D03*
X125609947Y-162081704D03*
D12*
X125609947Y-162531704D03*
%TD*%
D15*
%TO.P,JA1,1,In*%
%TO.N,N/C*%
X130012214Y-30981325D03*
D12*
%TO.P,JA1,2,Ext*%
X125632214Y-34471325D03*
D13*
X125632214Y-31481325D03*
X134392214Y-31481325D03*
D14*
X125632214Y-34921325D03*
X134392214Y-34921325D03*
D12*
X134392214Y-34471325D03*
%TD*%
D16*
%TO.P,CE3,1*%
%TO.N,/AC_B*%
X120421010Y-124442142D03*
%TO.P,CE3,2*%
%TO.N,GND*%
X119201250Y-123222382D03*
%TD*%
D17*
%TO.P,JA1,1,In*%
%TO.N,/AC_A*%
X27780000Y-62990218D03*
D18*
%TO.P,JA1,2,Ext*%
%TO.N,GND*%
X31270000Y-67370218D03*
D19*
X28280000Y-67370218D03*
X28280000Y-58610218D03*
D14*
X31720000Y-67370218D03*
X31720000Y-58610218D03*
D18*
X31270000Y-58610218D03*
%TD*%
D17*
%TO.P,JA1,1,In*%
%TO.N,N/C*%
X27793683Y-133993117D03*
D18*
%TO.P,JA1,2,Ext*%
X31283683Y-138373117D03*
D19*
X28293683Y-138373117D03*
X28293683Y-129613117D03*
D14*
X31733683Y-138373117D03*
X31733683Y-129613117D03*
D18*
X31283683Y-129613117D03*
%TD*%
D16*
%TO.P,CC2,1*%
%TO.N,/AC_B*%
X50228891Y-124421090D03*
%TO.P,CC2,2*%
%TO.N,GND*%
X49009131Y-123201330D03*
%TD*%
D20*
%TO.P,CC3,1*%
%TO.N,/AC_B*%
X69373807Y-124421090D03*
%TO.P,CC3,2*%
%TO.N,GND*%
X70593567Y-123201330D03*
%TD*%
D21*
%TO.P,CC1,1*%
%TO.N,/AC_B*%
X50228891Y-143566006D03*
%TO.P,CC1,2*%
%TO.N,GND*%
X49009131Y-144785766D03*
%TD*%
D15*
%TO.P,JA1,1,In*%
%TO.N,N/C*%
X59803119Y-30981325D03*
D12*
%TO.P,JA1,2,Ext*%
X55423119Y-34471325D03*
D13*
X55423119Y-31481325D03*
X64183119Y-31481325D03*
D14*
X55423119Y-34921325D03*
X64183119Y-34921325D03*
D12*
X64183119Y-34471325D03*
%TD*%
D22*
%TO.P,CC4,1*%
%TO.N,/AC_B*%
X69373807Y-143566006D03*
%TO.P,CC4,2*%
%TO.N,GND*%
X70593567Y-144785766D03*
%TD*%
D23*
%TO.P,JA1,1,In*%
%TO.N,N/C*%
X162021772Y-134009327D03*
D18*
%TO.P,JA1,2,Ext*%
X158531772Y-129629327D03*
D19*
X161521772Y-129629327D03*
X161521772Y-138389327D03*
D14*
X158081772Y-129629327D03*
X158081772Y-138389327D03*
D18*
X158531772Y-138389327D03*
%TD*%
D22*
%TO.P,CE1,1*%
%TO.N,/AC_B*%
X139565926Y-143587058D03*
%TO.P,CE1,2*%
%TO.N,GND*%
X140785686Y-144806818D03*
%TD*%
D21*
%TO.P,CB3,1*%
%TO.N,/AC_B*%
X120442091Y-72572458D03*
%TO.P,CB3,2*%
%TO.N,GND*%
X119222331Y-73792218D03*
%TD*%
D23*
%TO.P,JA1,1,In*%
%TO.N,N/C*%
X162031147Y-62998248D03*
D18*
%TO.P,JA1,2,Ext*%
X158541147Y-58618248D03*
D19*
X161531147Y-58618248D03*
X161531147Y-67378248D03*
D14*
X158091147Y-58618248D03*
X158091147Y-67378248D03*
D18*
X158541147Y-67378248D03*
%TD*%
D16*
%TO.P,CB4,1*%
%TO.N,/AC_B*%
X120442091Y-53427542D03*
%TO.P,CB4,2*%
%TO.N,GND*%
X119222331Y-52207782D03*
%TD*%
D21*
%TO.P,CE2,1*%
%TO.N,/AC_B*%
X120421010Y-143587058D03*
%TO.P,CE2,2*%
%TO.N,GND*%
X119201250Y-144806818D03*
%TD*%
D22*
%TO.P,CB2,1*%
%TO.N,/AC_B*%
X139587007Y-72572458D03*
%TO.P,CB2,2*%
%TO.N,GND*%
X140806767Y-73792218D03*
%TD*%
D20*
%TO.P,CB1,1*%
%TO.N,/AC_B*%
X139587007Y-53427542D03*
%TO.P,CB1,2*%
%TO.N,GND*%
X140806767Y-52207782D03*
%TD*%
%TO.P,CD4,1*%
%TO.N,/AC_B*%
X139565926Y-124442142D03*
%TO.P,CD4,2*%
%TO.N,GND*%
X140785686Y-123222382D03*
%TD*%
D24*
%TO.N,GND*%
X49752299Y-145529888D03*
X69850459Y-122457282D03*
X48219861Y-145580988D03*
X119971719Y-51458078D03*
X71382897Y-122406182D03*
X118457202Y-123965490D03*
X140063599Y-51463660D03*
X119944425Y-145550873D03*
X49758579Y-122451700D03*
X118451620Y-144057370D03*
X118427116Y-51418445D03*
X140057319Y-74541848D03*
X141556404Y-52957163D03*
X141529808Y-144063650D03*
X69844179Y-145535470D03*
X118433001Y-74587366D03*
X141575023Y-122427167D03*
X118478216Y-52950883D03*
X141580908Y-145596088D03*
X118411987Y-145601973D03*
X48265076Y-123944505D03*
X48213976Y-122412067D03*
X118472634Y-73042763D03*
X118406102Y-122433052D03*
X71337682Y-144042665D03*
X119965439Y-74536266D03*
X141601922Y-74581481D03*
X141596037Y-51412560D03*
X141535390Y-123971770D03*
X71343264Y-123950785D03*
X48259494Y-144036385D03*
X119950705Y-122472685D03*
X141550822Y-73049043D03*
X71388782Y-145575103D03*
X140042585Y-122478267D03*
X140036305Y-145556455D03*
%TD*%
D25*
%TO.N,GND*%
X140785753Y-123222389D02*
X140786009Y-123222389D01*
X140785686Y-144806818D02*
X140785686Y-144807074D01*
X49009131Y-144785766D02*
X49009131Y-144786720D01*
X70593627Y-123201404D02*
X70593627Y-123195452D01*
X70593627Y-123195452D02*
X71382897Y-122406182D01*
X119222271Y-73792144D02*
X119222015Y-73792144D01*
X140791638Y-144806818D02*
X141580908Y-145596088D01*
X119222271Y-73792144D02*
X119222271Y-73798096D01*
X49008875Y-144785766D02*
X48259494Y-144036385D01*
X119195372Y-123222322D02*
X118406102Y-122433052D01*
X140785686Y-144806818D02*
X140786640Y-144806818D01*
X119221384Y-52207715D02*
X118478216Y-52950883D01*
X49009198Y-123201081D02*
X49758579Y-122451700D01*
X140806767Y-52207782D02*
X140807023Y-52207782D01*
X140785686Y-144806818D02*
X140791638Y-144806818D01*
X140785753Y-123222389D02*
X140785753Y-123221435D01*
X70593627Y-123201404D02*
X70593627Y-123200450D01*
X70593560Y-144786089D02*
X69844179Y-145535470D01*
X140806700Y-73792211D02*
X140812652Y-73792211D01*
X140806767Y-52206828D02*
X140063599Y-51463660D01*
X49009198Y-123201337D02*
X49008244Y-123201337D01*
X140806700Y-73792211D02*
X140807654Y-73792211D01*
X49003246Y-123201337D02*
X48213976Y-122412067D01*
X119216386Y-52207715D02*
X118427116Y-51418445D01*
X119222338Y-52207715D02*
X119221384Y-52207715D01*
X140807023Y-52207782D02*
X141556404Y-52957163D01*
X119200370Y-123222322D02*
X118457202Y-123965490D01*
X140785753Y-123216437D02*
X141575023Y-122427167D01*
X70593627Y-123201404D02*
X70593883Y-123201404D01*
X140806767Y-52201830D02*
X141596037Y-51412560D01*
X140806700Y-73792211D02*
X140806700Y-73792467D01*
X140785686Y-144807074D02*
X140036305Y-145556455D01*
X140806700Y-73792467D02*
X140057319Y-74541848D01*
X119222338Y-52207459D02*
X119971719Y-51458078D01*
X119222338Y-52207715D02*
X119216386Y-52207715D01*
X140786640Y-144806818D02*
X141529808Y-144063650D01*
X119201257Y-144806751D02*
X119201257Y-144807705D01*
X119201324Y-123222322D02*
X119201324Y-123222066D01*
X119201324Y-123222066D02*
X119950705Y-122472685D01*
X119222338Y-52207715D02*
X119222338Y-52207459D01*
X70599512Y-144785833D02*
X71388782Y-145575103D01*
X119222271Y-73793098D02*
X119965439Y-74536266D01*
X49009131Y-144785766D02*
X49008875Y-144785766D01*
X49009198Y-123201337D02*
X49003246Y-123201337D01*
X119201257Y-144807705D02*
X119944425Y-145550873D01*
X140785753Y-123222389D02*
X140785753Y-123216437D01*
X49008244Y-123201337D02*
X48265076Y-123944505D01*
X119222015Y-73792144D02*
X118472634Y-73042763D01*
X70593560Y-144785833D02*
X70593560Y-144786089D01*
X49009131Y-144786720D02*
X49752299Y-145529888D01*
X140812652Y-73792211D02*
X141601922Y-74581481D01*
X70594514Y-144785833D02*
X71337682Y-144042665D01*
X140806767Y-52207782D02*
X140806767Y-52206828D01*
X70593627Y-123200450D02*
X69850459Y-122457282D01*
X119201324Y-123222322D02*
X119200370Y-123222322D01*
X70593560Y-144785833D02*
X70594514Y-144785833D01*
X119201324Y-123222322D02*
X119195372Y-123222322D01*
X119201257Y-144812703D02*
X118411987Y-145601973D01*
X119201257Y-144806751D02*
X119201001Y-144806751D01*
X140785753Y-123221435D02*
X140042585Y-122478267D01*
X140806767Y-52207782D02*
X140806767Y-52201830D01*
X49009131Y-144785766D02*
X49009131Y-144791718D01*
X49009131Y-144791718D02*
X48219861Y-145580988D01*
X119222271Y-73792144D02*
X119222271Y-73793098D01*
X119222271Y-73798096D02*
X118433001Y-74587366D01*
X49009198Y-123201337D02*
X49009198Y-123201081D01*
X119201257Y-144806751D02*
X119201257Y-144812703D01*
X70593560Y-144785833D02*
X70599512Y-144785833D01*
X119201001Y-144806751D02*
X118451620Y-144057370D01*
X140807654Y-73792211D02*
X141550822Y-73049043D01*
X70593883Y-123201404D02*
X71343264Y-123950785D01*
X140786009Y-123222389D02*
X141535390Y-123971770D01*
%TD*%
M02*
