%TF.GenerationSoftware,KiCad,Pcbnew,6.0.6-3a73a75311~116~ubuntu20.04.1*%
%TF.CreationDate,2022-06-30T05:51:01+02:00*%
%TF.ProjectId,panel_v3,70616e65-6c5f-4763-932e-6b696361645f,rev?*%
%TF.SameCoordinates,Original*%
%TF.FileFunction,Soldermask,Bot*%
%TF.FilePolarity,Negative*%
%FSLAX46Y46*%
G04 Gerber Fmt 4.6, Leading zero omitted, Abs format (unit mm)*
G04 Created by KiCad (PCBNEW 6.0.6-3a73a75311~116~ubuntu20.04.1) date 2022-06-30 05:51:01*
%MOMM*%
%LPD*%
G01*
G04 APERTURE LIST*
%ADD10C,0.010000*%
%ADD11R,2.420000X5.080000*%
%ADD12R,5.080000X2.420000*%
G04 APERTURE END LIST*
%TO.C,Ref\u002A\u002A*%
G36*
X130513216Y-130036128D02*
G01*
X130883284Y-130100759D01*
X131245038Y-130202504D01*
X131513411Y-130307115D01*
X131604305Y-130342546D01*
X131799161Y-130434425D01*
X132158268Y-130636659D01*
X132489309Y-130870454D01*
X132791443Y-131134971D01*
X133063829Y-131429370D01*
X133305627Y-131752809D01*
X133515997Y-132104448D01*
X133565666Y-132200840D01*
X133730033Y-132570118D01*
X133854103Y-132940324D01*
X133938853Y-133316290D01*
X133985260Y-133702846D01*
X133994302Y-134104825D01*
X133986975Y-134283111D01*
X133942829Y-134680560D01*
X133859200Y-135067042D01*
X133738055Y-135440187D01*
X133581361Y-135797625D01*
X133391088Y-136136987D01*
X133169201Y-136455903D01*
X132917669Y-136752004D01*
X132638459Y-137022921D01*
X132333538Y-137266284D01*
X132004876Y-137479724D01*
X131654438Y-137660870D01*
X131284192Y-137807355D01*
X130987865Y-137894778D01*
X130623540Y-137967180D01*
X130243062Y-138005860D01*
X129855874Y-138010818D01*
X129471419Y-137982052D01*
X129099139Y-137919561D01*
X128994577Y-137895073D01*
X128613364Y-137778263D01*
X128248284Y-137623828D01*
X127901767Y-137434201D01*
X127576245Y-137211812D01*
X127274149Y-136959092D01*
X126997909Y-136678473D01*
X126749957Y-136372384D01*
X126532723Y-136043258D01*
X126348638Y-135693524D01*
X126284485Y-135534590D01*
X128465411Y-135534590D01*
X131513411Y-135534590D01*
X131513411Y-132486590D01*
X128465411Y-132486590D01*
X128465411Y-135534590D01*
X126284485Y-135534590D01*
X126200133Y-135325614D01*
X126104944Y-135005424D01*
X126052997Y-134770096D01*
X126017874Y-134541036D01*
X125997946Y-134303565D01*
X125991581Y-134043003D01*
X125991793Y-133986707D01*
X125993206Y-133862446D01*
X125995303Y-133749775D01*
X125997870Y-133656861D01*
X126000690Y-133591870D01*
X126002885Y-133566090D01*
X126049664Y-133291490D01*
X126100304Y-133050321D01*
X126157212Y-132833702D01*
X126222794Y-132632757D01*
X126299457Y-132438606D01*
X126323090Y-132384577D01*
X126506825Y-132022826D01*
X126723353Y-131684966D01*
X126970116Y-131372778D01*
X127244559Y-131088046D01*
X127544122Y-130832553D01*
X127866248Y-130608080D01*
X128208381Y-130416411D01*
X128567962Y-130259328D01*
X128942434Y-130138614D01*
X129329240Y-130056051D01*
X129724827Y-130013477D01*
X130129006Y-130007428D01*
X130513216Y-130036128D01*
G37*
D10*
X130513216Y-130036128D02*
X130883284Y-130100759D01*
X131245038Y-130202504D01*
X131513411Y-130307115D01*
X131604305Y-130342546D01*
X131799161Y-130434425D01*
X132158268Y-130636659D01*
X132489309Y-130870454D01*
X132791443Y-131134971D01*
X133063829Y-131429370D01*
X133305627Y-131752809D01*
X133515997Y-132104448D01*
X133565666Y-132200840D01*
X133730033Y-132570118D01*
X133854103Y-132940324D01*
X133938853Y-133316290D01*
X133985260Y-133702846D01*
X133994302Y-134104825D01*
X133986975Y-134283111D01*
X133942829Y-134680560D01*
X133859200Y-135067042D01*
X133738055Y-135440187D01*
X133581361Y-135797625D01*
X133391088Y-136136987D01*
X133169201Y-136455903D01*
X132917669Y-136752004D01*
X132638459Y-137022921D01*
X132333538Y-137266284D01*
X132004876Y-137479724D01*
X131654438Y-137660870D01*
X131284192Y-137807355D01*
X130987865Y-137894778D01*
X130623540Y-137967180D01*
X130243062Y-138005860D01*
X129855874Y-138010818D01*
X129471419Y-137982052D01*
X129099139Y-137919561D01*
X128994577Y-137895073D01*
X128613364Y-137778263D01*
X128248284Y-137623828D01*
X127901767Y-137434201D01*
X127576245Y-137211812D01*
X127274149Y-136959092D01*
X126997909Y-136678473D01*
X126749957Y-136372384D01*
X126532723Y-136043258D01*
X126348638Y-135693524D01*
X126284485Y-135534590D01*
X128465411Y-135534590D01*
X131513411Y-135534590D01*
X131513411Y-132486590D01*
X128465411Y-132486590D01*
X128465411Y-135534590D01*
X126284485Y-135534590D01*
X126200133Y-135325614D01*
X126104944Y-135005424D01*
X126052997Y-134770096D01*
X126017874Y-134541036D01*
X125997946Y-134303565D01*
X125991581Y-134043003D01*
X125991793Y-133986707D01*
X125993206Y-133862446D01*
X125995303Y-133749775D01*
X125997870Y-133656861D01*
X126000690Y-133591870D01*
X126002885Y-133566090D01*
X126049664Y-133291490D01*
X126100304Y-133050321D01*
X126157212Y-132833702D01*
X126222794Y-132632757D01*
X126299457Y-132438606D01*
X126323090Y-132384577D01*
X126506825Y-132022826D01*
X126723353Y-131684966D01*
X126970116Y-131372778D01*
X127244559Y-131088046D01*
X127544122Y-130832553D01*
X127866248Y-130608080D01*
X128208381Y-130416411D01*
X128567962Y-130259328D01*
X128942434Y-130138614D01*
X129329240Y-130056051D01*
X129724827Y-130013477D01*
X130129006Y-130007428D01*
X130513216Y-130036128D01*
G36*
X58520534Y-66788152D02*
G01*
X58145275Y-66641086D01*
X57790824Y-66458748D01*
X57459070Y-66243596D01*
X57151905Y-65998092D01*
X56871219Y-65724696D01*
X56618902Y-65425868D01*
X56396847Y-65104068D01*
X56206942Y-64761757D01*
X56051080Y-64401395D01*
X55951504Y-64089243D01*
X58704752Y-64089243D01*
X60906086Y-64089243D01*
X60906086Y-61887910D01*
X58704752Y-61887910D01*
X58704752Y-64089243D01*
X55951504Y-64089243D01*
X55931151Y-64025442D01*
X55849046Y-63636359D01*
X55807900Y-63258452D01*
X55801162Y-62847308D01*
X55831884Y-62453134D01*
X55900925Y-62071623D01*
X56009145Y-61698472D01*
X56157404Y-61329375D01*
X56219091Y-61199993D01*
X56421719Y-60836775D01*
X56654439Y-60503312D01*
X56917084Y-60199769D01*
X57209492Y-59926313D01*
X57531496Y-59683108D01*
X57882933Y-59470321D01*
X57995669Y-59411643D01*
X58353592Y-59251398D01*
X58714199Y-59129608D01*
X59082525Y-59045254D01*
X59463603Y-58997321D01*
X59862467Y-58984793D01*
X60075294Y-58991759D01*
X60465917Y-59033163D01*
X60847036Y-59114247D01*
X61216158Y-59232942D01*
X61570792Y-59387179D01*
X61908449Y-59574889D01*
X62226637Y-59794004D01*
X62522865Y-60042454D01*
X62794643Y-60318172D01*
X63039479Y-60619088D01*
X63254883Y-60943134D01*
X63438363Y-61288241D01*
X63587429Y-61652341D01*
X63689902Y-61993743D01*
X63742185Y-62231320D01*
X63777535Y-62463784D01*
X63797582Y-62705696D01*
X63803953Y-62971618D01*
X63803842Y-63012460D01*
X63801243Y-63151813D01*
X63795445Y-63294038D01*
X63787177Y-63426362D01*
X63777170Y-63536015D01*
X63771309Y-63581243D01*
X63690247Y-63979269D01*
X63570869Y-64363091D01*
X63415177Y-64730318D01*
X63225171Y-65078559D01*
X63002852Y-65405423D01*
X62750220Y-65708519D01*
X62469275Y-65985456D01*
X62162018Y-66233842D01*
X61830449Y-66451286D01*
X61476568Y-66635398D01*
X61102377Y-66783785D01*
X61088084Y-66788587D01*
X60846761Y-66862562D01*
X60617964Y-66917727D01*
X60390519Y-66955621D01*
X60153255Y-66977782D01*
X59894999Y-66985751D01*
X59675287Y-66983196D01*
X59441087Y-66973444D01*
X59236305Y-66956058D01*
X59048386Y-66928915D01*
X58864774Y-66889895D01*
X58704752Y-66845677D01*
X58672916Y-66836879D01*
X58520534Y-66788152D01*
G37*
X58520534Y-66788152D02*
X58145275Y-66641086D01*
X57790824Y-66458748D01*
X57459070Y-66243596D01*
X57151905Y-65998092D01*
X56871219Y-65724696D01*
X56618902Y-65425868D01*
X56396847Y-65104068D01*
X56206942Y-64761757D01*
X56051080Y-64401395D01*
X55951504Y-64089243D01*
X58704752Y-64089243D01*
X60906086Y-64089243D01*
X60906086Y-61887910D01*
X58704752Y-61887910D01*
X58704752Y-64089243D01*
X55951504Y-64089243D01*
X55931151Y-64025442D01*
X55849046Y-63636359D01*
X55807900Y-63258452D01*
X55801162Y-62847308D01*
X55831884Y-62453134D01*
X55900925Y-62071623D01*
X56009145Y-61698472D01*
X56157404Y-61329375D01*
X56219091Y-61199993D01*
X56421719Y-60836775D01*
X56654439Y-60503312D01*
X56917084Y-60199769D01*
X57209492Y-59926313D01*
X57531496Y-59683108D01*
X57882933Y-59470321D01*
X57995669Y-59411643D01*
X58353592Y-59251398D01*
X58714199Y-59129608D01*
X59082525Y-59045254D01*
X59463603Y-58997321D01*
X59862467Y-58984793D01*
X60075294Y-58991759D01*
X60465917Y-59033163D01*
X60847036Y-59114247D01*
X61216158Y-59232942D01*
X61570792Y-59387179D01*
X61908449Y-59574889D01*
X62226637Y-59794004D01*
X62522865Y-60042454D01*
X62794643Y-60318172D01*
X63039479Y-60619088D01*
X63254883Y-60943134D01*
X63438363Y-61288241D01*
X63587429Y-61652341D01*
X63689902Y-61993743D01*
X63742185Y-62231320D01*
X63777535Y-62463784D01*
X63797582Y-62705696D01*
X63803953Y-62971618D01*
X63803842Y-63012460D01*
X63801243Y-63151813D01*
X63795445Y-63294038D01*
X63787177Y-63426362D01*
X63777170Y-63536015D01*
X63771309Y-63581243D01*
X63690247Y-63979269D01*
X63570869Y-64363091D01*
X63415177Y-64730318D01*
X63225171Y-65078559D01*
X63002852Y-65405423D01*
X62750220Y-65708519D01*
X62469275Y-65985456D01*
X62162018Y-66233842D01*
X61830449Y-66451286D01*
X61476568Y-66635398D01*
X61102377Y-66783785D01*
X61088084Y-66788587D01*
X60846761Y-66862562D01*
X60617964Y-66917727D01*
X60390519Y-66955621D01*
X60153255Y-66977782D01*
X59894999Y-66985751D01*
X59675287Y-66983196D01*
X59441087Y-66973444D01*
X59236305Y-66956058D01*
X59048386Y-66928915D01*
X58864774Y-66889895D01*
X58704752Y-66845677D01*
X58672916Y-66836879D01*
X58520534Y-66788152D01*
G36*
X130316931Y-59001548D02*
G01*
X130709411Y-59051283D01*
X131094387Y-59139048D01*
X131468925Y-59264157D01*
X131830092Y-59425924D01*
X132174952Y-59623663D01*
X132500573Y-59856687D01*
X132804020Y-60124310D01*
X132837068Y-60156979D01*
X133111781Y-60460983D01*
X133351467Y-60787136D01*
X133555381Y-61132750D01*
X133722777Y-61495139D01*
X133852911Y-61871616D01*
X133945037Y-62259494D01*
X133998412Y-62656086D01*
X134012288Y-63058704D01*
X133985923Y-63464662D01*
X133918570Y-63871272D01*
X133895123Y-63973193D01*
X133780785Y-64355828D01*
X133629342Y-64721072D01*
X133443150Y-65066869D01*
X133224563Y-65391161D01*
X132975937Y-65691890D01*
X132699626Y-65966999D01*
X132397985Y-66214431D01*
X132073369Y-66432129D01*
X131728132Y-66618034D01*
X131364629Y-66770091D01*
X130985216Y-66886241D01*
X130592246Y-66964426D01*
X130450619Y-66982587D01*
X130274286Y-66996144D01*
X130074130Y-67001965D01*
X129866060Y-67000217D01*
X129665985Y-66991070D01*
X129489814Y-66974691D01*
X129470827Y-66972219D01*
X129065692Y-66896693D01*
X128675740Y-66782389D01*
X128302999Y-66630770D01*
X127949499Y-66443294D01*
X127617266Y-66221423D01*
X127308330Y-65966617D01*
X127024718Y-65680338D01*
X126768459Y-65364044D01*
X126541582Y-65019198D01*
X126401573Y-64762073D01*
X126245320Y-64403688D01*
X126150758Y-64105336D01*
X128909910Y-64105336D01*
X131111244Y-64105336D01*
X131111244Y-61904002D01*
X128909910Y-61904002D01*
X128909910Y-64105336D01*
X126150758Y-64105336D01*
X126126692Y-64029406D01*
X126045952Y-63643232D01*
X126003362Y-63249172D01*
X125999186Y-62851231D01*
X126033686Y-62453414D01*
X126107123Y-62059726D01*
X126151480Y-61904002D01*
X126202542Y-61724745D01*
X126350821Y-61345153D01*
X126535163Y-60985892D01*
X126753383Y-60649146D01*
X127003298Y-60337099D01*
X127282725Y-60051934D01*
X127589478Y-59795836D01*
X127921375Y-59570989D01*
X128276231Y-59379576D01*
X128651863Y-59223780D01*
X128730653Y-59196634D01*
X129123809Y-59087386D01*
X129521196Y-59018914D01*
X129919882Y-58990530D01*
X130316931Y-59001548D01*
G37*
X130316931Y-59001548D02*
X130709411Y-59051283D01*
X131094387Y-59139048D01*
X131468925Y-59264157D01*
X131830092Y-59425924D01*
X132174952Y-59623663D01*
X132500573Y-59856687D01*
X132804020Y-60124310D01*
X132837068Y-60156979D01*
X133111781Y-60460983D01*
X133351467Y-60787136D01*
X133555381Y-61132750D01*
X133722777Y-61495139D01*
X133852911Y-61871616D01*
X133945037Y-62259494D01*
X133998412Y-62656086D01*
X134012288Y-63058704D01*
X133985923Y-63464662D01*
X133918570Y-63871272D01*
X133895123Y-63973193D01*
X133780785Y-64355828D01*
X133629342Y-64721072D01*
X133443150Y-65066869D01*
X133224563Y-65391161D01*
X132975937Y-65691890D01*
X132699626Y-65966999D01*
X132397985Y-66214431D01*
X132073369Y-66432129D01*
X131728132Y-66618034D01*
X131364629Y-66770091D01*
X130985216Y-66886241D01*
X130592246Y-66964426D01*
X130450619Y-66982587D01*
X130274286Y-66996144D01*
X130074130Y-67001965D01*
X129866060Y-67000217D01*
X129665985Y-66991070D01*
X129489814Y-66974691D01*
X129470827Y-66972219D01*
X129065692Y-66896693D01*
X128675740Y-66782389D01*
X128302999Y-66630770D01*
X127949499Y-66443294D01*
X127617266Y-66221423D01*
X127308330Y-65966617D01*
X127024718Y-65680338D01*
X126768459Y-65364044D01*
X126541582Y-65019198D01*
X126401573Y-64762073D01*
X126245320Y-64403688D01*
X126150758Y-64105336D01*
X128909910Y-64105336D01*
X131111244Y-64105336D01*
X131111244Y-61904002D01*
X128909910Y-61904002D01*
X128909910Y-64105336D01*
X126150758Y-64105336D01*
X126126692Y-64029406D01*
X126045952Y-63643232D01*
X126003362Y-63249172D01*
X125999186Y-62851231D01*
X126033686Y-62453414D01*
X126107123Y-62059726D01*
X126151480Y-61904002D01*
X126202542Y-61724745D01*
X126350821Y-61345153D01*
X126535163Y-60985892D01*
X126753383Y-60649146D01*
X127003298Y-60337099D01*
X127282725Y-60051934D01*
X127589478Y-59795836D01*
X127921375Y-59570989D01*
X128276231Y-59379576D01*
X128651863Y-59223780D01*
X128730653Y-59196634D01*
X129123809Y-59087386D01*
X129521196Y-59018914D01*
X129919882Y-58990530D01*
X130316931Y-59001548D01*
G36*
X63449396Y-135662954D02*
G01*
X63276061Y-136001008D01*
X63071743Y-136320862D01*
X62837838Y-136620224D01*
X62575745Y-136896801D01*
X62286861Y-137148298D01*
X61972583Y-137372424D01*
X61634310Y-137566885D01*
X61273440Y-137729388D01*
X60891369Y-137857640D01*
X60670780Y-137913176D01*
X60267426Y-137981889D01*
X59863982Y-138009358D01*
X59463282Y-137996376D01*
X59068158Y-137943739D01*
X58681442Y-137852240D01*
X58305965Y-137722675D01*
X57944561Y-137555838D01*
X57600062Y-137352523D01*
X57275300Y-137113524D01*
X57024690Y-136890490D01*
X56787983Y-136645545D01*
X56584946Y-136399679D01*
X56407979Y-136142559D01*
X56249478Y-135863853D01*
X56206117Y-135777994D01*
X56044387Y-135402796D01*
X55952225Y-135111244D01*
X58704752Y-135111244D01*
X60906086Y-135111244D01*
X60906086Y-132888744D01*
X58704752Y-132888744D01*
X58704752Y-135111244D01*
X55952225Y-135111244D01*
X55922670Y-135017747D01*
X55840695Y-134625830D01*
X55798191Y-134230030D01*
X55794886Y-133833331D01*
X55830511Y-133438716D01*
X55904792Y-133049170D01*
X56017461Y-132667676D01*
X56168245Y-132297218D01*
X56356873Y-131940780D01*
X56583074Y-131601346D01*
X56585875Y-131597577D01*
X56678617Y-131481554D01*
X56794515Y-131349637D01*
X56923570Y-131212256D01*
X57055783Y-131079838D01*
X57181154Y-130962811D01*
X57257063Y-130897618D01*
X57583507Y-130657101D01*
X57931199Y-130452032D01*
X58296851Y-130283363D01*
X58677177Y-130152041D01*
X59068892Y-130059017D01*
X59468709Y-130005240D01*
X59873343Y-129991658D01*
X60279506Y-130019222D01*
X60292252Y-130020765D01*
X60691810Y-130090456D01*
X61077527Y-130198665D01*
X61447131Y-130343406D01*
X61798347Y-130522691D01*
X62128902Y-130734533D01*
X62436520Y-130976943D01*
X62718928Y-131247934D01*
X62973851Y-131545519D01*
X63199016Y-131867710D01*
X63392148Y-132212520D01*
X63550973Y-132577961D01*
X63673217Y-132962045D01*
X63677791Y-132979618D01*
X63760477Y-133380860D01*
X63802396Y-133779954D01*
X63804945Y-134174608D01*
X63769522Y-134562528D01*
X63697524Y-134941421D01*
X63648009Y-135111244D01*
X63590350Y-135308994D01*
X63449396Y-135662954D01*
G37*
X63449396Y-135662954D02*
X63276061Y-136001008D01*
X63071743Y-136320862D01*
X62837838Y-136620224D01*
X62575745Y-136896801D01*
X62286861Y-137148298D01*
X61972583Y-137372424D01*
X61634310Y-137566885D01*
X61273440Y-137729388D01*
X60891369Y-137857640D01*
X60670780Y-137913176D01*
X60267426Y-137981889D01*
X59863982Y-138009358D01*
X59463282Y-137996376D01*
X59068158Y-137943739D01*
X58681442Y-137852240D01*
X58305965Y-137722675D01*
X57944561Y-137555838D01*
X57600062Y-137352523D01*
X57275300Y-137113524D01*
X57024690Y-136890490D01*
X56787983Y-136645545D01*
X56584946Y-136399679D01*
X56407979Y-136142559D01*
X56249478Y-135863853D01*
X56206117Y-135777994D01*
X56044387Y-135402796D01*
X55952225Y-135111244D01*
X58704752Y-135111244D01*
X60906086Y-135111244D01*
X60906086Y-132888744D01*
X58704752Y-132888744D01*
X58704752Y-135111244D01*
X55952225Y-135111244D01*
X55922670Y-135017747D01*
X55840695Y-134625830D01*
X55798191Y-134230030D01*
X55794886Y-133833331D01*
X55830511Y-133438716D01*
X55904792Y-133049170D01*
X56017461Y-132667676D01*
X56168245Y-132297218D01*
X56356873Y-131940780D01*
X56583074Y-131601346D01*
X56585875Y-131597577D01*
X56678617Y-131481554D01*
X56794515Y-131349637D01*
X56923570Y-131212256D01*
X57055783Y-131079838D01*
X57181154Y-130962811D01*
X57257063Y-130897618D01*
X57583507Y-130657101D01*
X57931199Y-130452032D01*
X58296851Y-130283363D01*
X58677177Y-130152041D01*
X59068892Y-130059017D01*
X59468709Y-130005240D01*
X59873343Y-129991658D01*
X60279506Y-130019222D01*
X60292252Y-130020765D01*
X60691810Y-130090456D01*
X61077527Y-130198665D01*
X61447131Y-130343406D01*
X61798347Y-130522691D01*
X62128902Y-130734533D01*
X62436520Y-130976943D01*
X62718928Y-131247934D01*
X62973851Y-131545519D01*
X63199016Y-131867710D01*
X63392148Y-132212520D01*
X63550973Y-132577961D01*
X63673217Y-132962045D01*
X63677791Y-132979618D01*
X63760477Y-133380860D01*
X63802396Y-133779954D01*
X63804945Y-134174608D01*
X63769522Y-134562528D01*
X63697524Y-134941421D01*
X63648009Y-135111244D01*
X63590350Y-135308994D01*
X63449396Y-135662954D01*
%TD*%
D11*
%TO.C,JA1*%
X64185838Y-165512580D03*
X55425838Y-165512580D03*
%TD*%
%TO.C,JA1*%
X134369947Y-165521704D03*
X125609947Y-165521704D03*
%TD*%
%TO.C,JA1*%
X125632214Y-31481325D03*
X134392214Y-31481325D03*
%TD*%
D12*
%TO.C,JA1*%
X28280000Y-67370218D03*
X28280000Y-58610218D03*
%TD*%
%TO.C,JA1*%
X28293683Y-138373117D03*
X28293683Y-129613117D03*
%TD*%
D11*
%TO.C,JA1*%
X55423119Y-31481325D03*
X64183119Y-31481325D03*
%TD*%
D12*
%TO.C,JA1*%
X161521772Y-129629327D03*
X161521772Y-138389327D03*
%TD*%
%TO.C,JA1*%
X161531147Y-58618248D03*
X161531147Y-67378248D03*
%TD*%
M02*
