%TF.GenerationSoftware,KiCad,Pcbnew,6.0.6-3a73a75311~116~ubuntu20.04.1*%
%TF.CreationDate,2022-06-30T05:51:01+02:00*%
%TF.ProjectId,panel_v3,70616e65-6c5f-4763-932e-6b696361645f,rev?*%
%TF.SameCoordinates,Original*%
%TF.FileFunction,Copper,L2,Bot*%
%TF.FilePolarity,Positive*%
%FSLAX46Y46*%
G04 Gerber Fmt 4.6, Leading zero omitted, Abs format (unit mm)*
G04 Created by KiCad (PCBNEW 6.0.6-3a73a75311~116~ubuntu20.04.1) date 2022-06-30 05:51:01*
%MOMM*%
%LPD*%
G01*
G04 APERTURE LIST*
%TA.AperFunction,EtchedComponent*%
%ADD10C,0.010000*%
%TD*%
%TA.AperFunction,SMDPad,CuDef*%
%ADD11R,2.420000X5.080000*%
%TD*%
%TA.AperFunction,SMDPad,CuDef*%
%ADD12R,0.460000X0.950000*%
%TD*%
%TA.AperFunction,ComponentPad*%
%ADD13C,0.970000*%
%TD*%
%TA.AperFunction,SMDPad,CuDef*%
%ADD14R,5.080000X2.420000*%
%TD*%
%TA.AperFunction,SMDPad,CuDef*%
%ADD15R,0.950000X0.460000*%
%TD*%
%TA.AperFunction,ViaPad*%
%ADD16C,0.600000*%
%TD*%
G04 APERTURE END LIST*
%TO.C,Ref\u002A\u002A*%
G36*
X129994702Y-103980374D02*
G01*
X131513411Y-103980642D01*
X160014327Y-103985674D01*
X160019627Y-134005299D01*
X160024926Y-164024924D01*
X99975077Y-164024924D01*
X99975077Y-135534590D01*
X128465411Y-135534590D01*
X131513411Y-135534590D01*
X131513411Y-132486590D01*
X128465411Y-132486590D01*
X128465411Y-135534590D01*
X99975077Y-135534590D01*
X99975077Y-103975075D01*
X129994702Y-103980374D01*
G37*
D10*
X129994702Y-103980374D02*
X131513411Y-103980642D01*
X160014327Y-103985674D01*
X160019627Y-134005299D01*
X160024926Y-164024924D01*
X99975077Y-164024924D01*
X99975077Y-135534590D01*
X128465411Y-135534590D01*
X131513411Y-135534590D01*
X131513411Y-132486590D01*
X128465411Y-132486590D01*
X128465411Y-135534590D01*
X99975077Y-135534590D01*
X99975077Y-103975075D01*
X129994702Y-103980374D01*
G36*
X29780502Y-32963660D02*
G01*
X89819752Y-32953062D01*
X89819752Y-93002910D01*
X29769904Y-93002910D01*
X29775008Y-64089243D01*
X58704752Y-64089243D01*
X60906086Y-64089243D01*
X60906086Y-61887910D01*
X58704752Y-61887910D01*
X58704752Y-64089243D01*
X29775008Y-64089243D01*
X29780502Y-32963660D01*
G37*
X29780502Y-32963660D02*
X89819752Y-32953062D01*
X89819752Y-93002910D01*
X29769904Y-93002910D01*
X29775008Y-64089243D01*
X58704752Y-64089243D01*
X60906086Y-64089243D01*
X60906086Y-61887910D01*
X58704752Y-61887910D01*
X58704752Y-64089243D01*
X29775008Y-64089243D01*
X29780502Y-32963660D01*
G36*
X160024910Y-32969169D02*
G01*
X160024910Y-93019002D01*
X99975077Y-93019002D01*
X99975077Y-64105336D01*
X128909910Y-64105336D01*
X131111244Y-64105336D01*
X131111244Y-61904002D01*
X128909910Y-61904002D01*
X128909910Y-64105336D01*
X99975077Y-64105336D01*
X99975077Y-32969169D01*
X160024910Y-32969169D01*
G37*
X160024910Y-32969169D02*
X160024910Y-93019002D01*
X99975077Y-93019002D01*
X99975077Y-64105336D01*
X128909910Y-64105336D01*
X131111244Y-64105336D01*
X131111244Y-61904002D01*
X128909910Y-61904002D01*
X128909910Y-64105336D01*
X99975077Y-64105336D01*
X99975077Y-32969169D01*
X160024910Y-32969169D01*
G36*
X29769919Y-164024911D02*
G01*
X29769919Y-135111244D01*
X58704752Y-135111244D01*
X60906086Y-135111244D01*
X60906086Y-132888744D01*
X58704752Y-132888744D01*
X58704752Y-135111244D01*
X29769919Y-135111244D01*
X29769919Y-103975077D01*
X89819752Y-103975077D01*
X89819752Y-164024911D01*
X29769919Y-164024911D01*
G37*
X29769919Y-164024911D02*
X29769919Y-135111244D01*
X58704752Y-135111244D01*
X60906086Y-135111244D01*
X60906086Y-132888744D01*
X58704752Y-132888744D01*
X58704752Y-135111244D01*
X29769919Y-135111244D01*
X29769919Y-103975077D01*
X89819752Y-103975077D01*
X89819752Y-164024911D01*
X29769919Y-164024911D01*
%TD*%
D11*
%TO.P,JA1,2,Ext*%
%TO.N,N/C*%
X64185838Y-165512580D03*
D12*
X55425838Y-162522580D03*
D11*
X55425838Y-165512580D03*
D13*
X64185838Y-162072580D03*
X55425838Y-162072580D03*
D12*
X64185838Y-162522580D03*
%TD*%
D11*
%TO.P,JA1,2,Ext*%
%TO.N,N/C*%
X134369947Y-165521704D03*
D12*
X125609947Y-162531704D03*
D11*
X125609947Y-165521704D03*
D13*
X134369947Y-162081704D03*
X125609947Y-162081704D03*
D12*
X134369947Y-162531704D03*
%TD*%
D11*
%TO.P,JA1,2,Ext*%
%TO.N,N/C*%
X125632214Y-31481325D03*
D12*
X134392214Y-34471325D03*
D11*
X134392214Y-31481325D03*
D13*
X125632214Y-34921325D03*
X134392214Y-34921325D03*
D12*
X125632214Y-34471325D03*
%TD*%
D14*
%TO.P,JA1,2,Ext*%
%TO.N,GND*%
X28280000Y-67370218D03*
D15*
X31270000Y-58610218D03*
D14*
X28280000Y-58610218D03*
D13*
X31720000Y-67370218D03*
X31720000Y-58610218D03*
D15*
X31270000Y-67370218D03*
%TD*%
D14*
%TO.P,JA1,2,Ext*%
%TO.N,N/C*%
X28293683Y-138373117D03*
D15*
X31283683Y-129613117D03*
D14*
X28293683Y-129613117D03*
D13*
X31733683Y-138373117D03*
X31733683Y-129613117D03*
D15*
X31283683Y-138373117D03*
%TD*%
D11*
%TO.P,JA1,2,Ext*%
%TO.N,N/C*%
X55423119Y-31481325D03*
D12*
X64183119Y-34471325D03*
D11*
X64183119Y-31481325D03*
D13*
X55423119Y-34921325D03*
X64183119Y-34921325D03*
D12*
X55423119Y-34471325D03*
%TD*%
D14*
%TO.P,JA1,2,Ext*%
%TO.N,N/C*%
X161521772Y-129629327D03*
D15*
X158531772Y-138389327D03*
D14*
X161521772Y-138389327D03*
D13*
X158081772Y-129629327D03*
X158081772Y-138389327D03*
D15*
X158531772Y-129629327D03*
%TD*%
D14*
%TO.P,JA1,2,Ext*%
%TO.N,N/C*%
X161531147Y-58618248D03*
D15*
X158541147Y-67378248D03*
D14*
X161531147Y-67378248D03*
D13*
X158091147Y-58618248D03*
X158091147Y-67378248D03*
D15*
X158541147Y-58618248D03*
%TD*%
D16*
%TO.N,GND*%
X49752299Y-145529888D03*
X69850459Y-122457282D03*
X48219861Y-145580988D03*
X119971719Y-51458078D03*
X71382897Y-122406182D03*
X118457202Y-123965490D03*
X140063599Y-51463660D03*
X119944425Y-145550873D03*
X49758579Y-122451700D03*
X118451620Y-144057370D03*
X118427116Y-51418445D03*
X140057319Y-74541848D03*
X141556404Y-52957163D03*
X141529808Y-144063650D03*
X69844179Y-145535470D03*
X118433001Y-74587366D03*
X141575023Y-122427167D03*
X118478216Y-52950883D03*
X141580908Y-145596088D03*
X118411987Y-145601973D03*
X48265076Y-123944505D03*
X48213976Y-122412067D03*
X118472634Y-73042763D03*
X118406102Y-122433052D03*
X71337682Y-144042665D03*
X119965439Y-74536266D03*
X141601922Y-74581481D03*
X141596037Y-51412560D03*
X141535390Y-123971770D03*
X71343264Y-123950785D03*
X48259494Y-144036385D03*
X119950705Y-122472685D03*
X141550822Y-73049043D03*
X71388782Y-145575103D03*
X140042585Y-122478267D03*
X140036305Y-145556455D03*
%TD*%
M02*
